<?xml version="1.0" encoding="utf-8"?>
<!-- Generator: Adobe Illustrator 16.0.0, SVG Export Plug-In . SVG Version: 6.00 Build 0)  -->
<!DOCTYPE svg PUBLIC "-//W3C//DTD SVG 1.0//EN" "http://www.w3.org/TR/2001/REC-SVG-20010904/DTD/svg10.dtd">
<svg version="1.0" id="Layer_1" xmlns="http://www.w3.org/2000/svg" xmlns:xlink="http://www.w3.org/1999/xlink" x="0px" y="0px"
	 width="470px" height="190px" viewBox="0 0 470 190" enable-background="new 0 0 470 190" xml:space="preserve">
<path fill="#FFFFFF" d="M35.528,5.919l33.088,0.223l8.942,1.116l10.284,2.902l9.166,4.242l2.013,1.339l4.471,5.582l1.118,2.232
	l1.564,1.786l1.789,4.688l1.118,5.582c0.446,0.67,0.744,1.415,0.894,2.232l0.224,6.475l-0.894,2.009l0.894,5.804v9.823l-0.447,2.902
	c-0.111,0.931-0.335,1.897-0.67,2.902l-1.565,4.912l-2.683,3.795l-1.789,1.786l-1.788,1.34l-1.118,2.232l-1.564,1.786
	c-0.671,0.372-1.342,0.819-2.013,1.339l-5.589,1.116c-0.82,0.149-1.342,0.67-1.565,1.563c0.484,0.558,1.081,1.08,1.789,1.563
	l6.483,3.349l3.801,2.902l1.341,2.009c0.261,0.708,0.634,1.377,1.118,2.009c0.336,0.782,0.559,1.601,0.671,2.456l-0.224,2.902
	c0.559-0.558,1.006-1.228,1.342-2.009c0.559,0.149,1.08,0.446,1.564,0.893l0.895,2.456l0.224,3.125l-0.671,6.027
	c-0.746,0.111-1.193,0.633-1.342,1.563c0.224,0.744,0.596,1.414,1.118,2.01l0.224,3.125l-1.342,8.707l2.013,1.115
	c1.043,0.188,1.564,0.857,1.564,2.01l-0.67,5.805l0.894,2.01l-0.224,8.707l-0.894,0.223l-1.118,5.582l-0.895,2.455
	c-0.224,0.707-0.522,1.451-0.895,2.232l-1.341,2.01l-2.013,4.688l-3.354,3.35l-4.023,2.678l-6.931,2.902l-22.804,3.797
	l-29.512,0.445c-0.559-0.559-0.857-1.375-0.894-2.455l-0.224-12.949l1.564-1.785c0.41-0.633,1.006-1.154,1.789-1.563
	c0.633-0.41,1.229-0.93,1.788-1.564l0.447-2.902c0.596-0.482,1.342-0.855,2.235-1.115c0.336,0.67,0.857,1.266,1.565,1.785
	c0.633-0.445,1.154-1.041,1.564-1.785l0.447-4.242h-1.564l-0.224,3.125c-0.559-0.557-1.006-1.227-1.342-2.008l-0.447-1.34
	l1.342-0.447l-1.788-0.445l-2.013,0.223l-0.447-0.67c-0.447-0.371-0.894-0.594-1.341-0.67c-0.112-0.893-0.336-1.785-0.671-2.68
	l0.224-2.678l1.564-5.135l3.801-2.902l0.447-1.787l-0.447-0.445l-1.788-0.447h-0.671v0.223c-0.373,0.746-0.895,1.34-1.565,1.787
	c-0.187,0.818-0.484,1.637-0.894,2.455c-0.671,0.299-1.417,0.67-2.236,1.117c-0.299,0.707-0.745,1.377-1.341,2.008l-2.683,3.797
	l-3.577,3.348l-0.895,1.34l-2.013,1.34c0.074,0.93,0.224,1.898,0.447,2.902c0.521,0.521,1.118,0.969,1.789,1.34
	c0.707-0.148,1.378-0.447,2.012-0.893c0.521-0.521,1.118-1.043,1.789-1.564l-2.013-1.115v-1.34l1.565,0.447
	c0.707,0.26,1.453,0.633,2.235,1.115c0.298,0.707,0.745,1.377,1.342,2.01c0.782,0.186,1.602,0.484,2.459,0.893l-0.671,2.68
	c-0.187,0.818-0.559,1.563-1.117,2.232c-0.522,0.559-1.193,1.004-2.013,1.34l-2.459-0.895c-0.782-0.371-1.305-1.041-1.565-2.008
	l-0.224-0.895c-0.335,0.15-0.634,0.447-0.894,0.895c0.148,0.93,0.372,1.822,0.67,2.678c0.596,0.521,1.267,0.82,2.013,0.895
	c0.483,0.482,1.154,0.781,2.012,0.893l0.671,9.152c-0.111,0.746-0.484,1.416-1.118,2.01c-0.187,0.818-0.335,1.713-0.446,2.68v2.455
	l-13.638-0.67l-3.13,0.223c-0.783,0.299-1.677,0.523-2.684,0.67h-1.341l0.447-1.563l1.117-2.232l3.801-2.902
	c0.336-0.781,0.559-1.6,0.671-2.455c0.895-0.297,1.862-0.521,2.906-0.67l1.342,0.67c0.298-0.037,0.521-0.186,0.67-0.447
	c-0.187-0.781-0.484-1.6-0.894-2.455l-1.342-1.787l-1.118-0.668l-0.223,1.115l-4.695,5.357l-1.789,1.564l-2.683,4.018l-1.341,0.223
	v-8.037L8.7,165.99v-1.34l1.788,0.225c0.372-0.037,0.596-0.26,0.671-0.67l-3.354-0.895c-0.336-0.855-0.559-1.822-0.671-2.902
	v-26.566l0.895-9.152c0.074-0.781,0.298-1.6,0.671-2.457l4.023-2.678c0.447-0.633,0.745-1.377,0.895-2.232
	c-0.597,0.408-1.118,0.93-1.564,1.563L9.817,120c-0.41,0.521-0.932,0.893-1.564,1.117l-0.895-2.457v-3.348l0.224-2.902L7.135,89.416
	l0.224-2.902l0.671-2.902c0.224-0.67,0.521-1.414,0.895-2.233l1.341,1.563c0.559,0.521,1.229,0.968,2.013,1.339
	c0.297-0.111,0.446-0.335,0.446-0.669l-0.67-0.893c-0.56-0.483-1.23-0.93-2.013-1.34C9.37,81.081,8.7,80.635,8.029,80.039
	L7.358,64.188l0.895-5.804l1.564-0.224c-0.037-0.334-0.187-0.706-0.447-1.116l-1.564-1.786L7.135,26.235
	c0.037-0.93,0.261-1.898,0.671-2.902l2.459-0.893c0.484-0.148,0.856-0.447,1.118-0.893h-0.895L8.7,21.993L8.477,11.054
	c0.036-0.855,0.483-1.451,1.341-1.786l2.46,4.242l6.483,6.698l0.446,1.563l0.895-0.446l1.565-1.786l0.894-2.232l0.224-0.893
	l-0.224-0.223l-1.341,0.446l-2.683,0.447h-0.895v-2.679L14.065,11.5c-0.522-0.483-1.044-1.079-1.565-1.786
	c-0.298-0.744-0.521-1.563-0.67-2.456l2.906,0.223l0.671,0.446l1.788-0.446l15.203-0.223v4.019c0.409,0.707,0.931,1.303,1.564,1.786
	l-0.447,9.153c-0.187,1.004-0.857,1.526-2.012,1.563c-0.485,0.373-1.081,0.67-1.789,0.893l-1.117,2.232
	c0.074,0.819,0.298,1.638,0.67,2.456l0.895-2.456c0.671-0.297,1.416-0.521,2.236-0.669c0.707-0.409,1.453-0.707,2.235-0.893
	l1.564,2.009l1.565,4.019l-0.447,0.669l-2.906,0.447l-0.895,2.232c-0.782,0.373-1.677,0.67-2.683,0.893l-0.895,0.223
	c0.074-0.558,0.298-1.079,0.671-1.563l1.342-0.447l-2.46-2.456l-1.117-0.67l-0.671,0.67c-0.597,0.484-1.118,1.08-1.565,1.786
	l-0.224,1.786c0.037,0.335,0.187,0.558,0.447,0.67l1.789,1.339l1.117,1.563l4.919,4.912l1.342,2.009
	c0.372,0.707,0.818,1.377,1.341,2.009l2.236,1.116c0.186,0.745,0.483,1.489,0.894,2.232c0.336,0.819,0.634,1.712,0.895,2.679
	c-0.597,0.521-1.342,0.893-2.235,1.116l-6.483,0.223l-2.013-1.116c-0.782,0.373-1.677,0.67-2.683,0.893l-0.671,1.339l0.447,0.67
	l2.012,1.339l-0.67,2.009l2.683-0.67c0.298,0.782,0.671,1.526,1.118,2.233l0.67,0.446l3.577-1.563l0.671,0.669l-0.895,1.116
	l-0.224,1.786l0.671-0.446c0.782,0.261,1.527,0.707,2.236,1.339l0.894,1.339l-0.894,0.224c-0.447,0.669-0.746,1.414-0.895,2.232
	l2.459-0.67c0.224-0.483,0.521-1.004,0.895-1.563l0.224,0.893c0.745-0.148,1.489-0.446,2.235-0.893l-0.447-2.233l2.236-0.893
	c0.26,0.782,0.409,1.675,0.446,2.679l-1.564,1.786l-2.235,0.893c-0.262,0.819-0.485,1.712-0.671,2.679
	c0.111,0.782,0.409,1.526,0.894,2.233c0.895,0.187,1.714,0.558,2.46,1.116l1.341,2.009c0.447,0.521,0.895,1.116,1.342,1.786
	c0.559,0.521,1.229,0.968,2.012,1.339c0.745,0.298,1.416,0.745,2.013,1.339c0.148,0.856,0.671,1.377,1.564,1.563l2.46-0.67v0.447
	l0.67,2.456c0.745,0.373,1.565,0.67,2.46,0.893l0.224-1.563l-0.224-0.446l-1.118-2.902l2.459-1.116l2.459-0.67l1.565-1.786
	l2.459-0.893l2.013-0.224l0.224,0.893l1.564,4.242l-0.447,0.67c-0.634,0.335-1.229,0.781-1.788,1.339l-2.683-0.669
	c-0.783,0.223-1.454,0.669-2.013,1.339l-1.118,2.232l-1.564,1.786l-1.565,1.116l2.684,0.67c0.372-0.372,0.818-0.595,1.341-0.67
	l0.447,0.67l1.565-0.447c-0.224-0.669-0.373-1.488-0.447-2.456v-1.116l2.012,0.223c-0.075,0.41-0.299,0.781-0.671,1.116l0.224,2.456
	l-0.894,4.688v0.67h0.223l2.236-0.447l0.671,0.224c0.372-0.447,0.67-0.967,0.894-1.563c0.224-0.893,0.819-1.488,1.789-1.786
	c0.559,0.596,1.006,1.266,1.341,2.009l0.224,3.125c0.372,0.633,0.895,1.154,1.565,1.563l2.012-1.339l0.224-1.786l-0.671-4.019
	l0.671-2.679c0.41-0.632,0.932-1.228,1.565-1.786c0.633-0.371,1.154-0.893,1.564-1.563l2.683-0.893l1.789-1.339l0.895-2.456
	l4.918-1.786c0.895-0.037,1.416-0.559,1.565-1.563c0.036-0.818,0.483-1.414,1.341-1.786l1.565,0.223l0.447-0.223l0.671-0.223
	l0.446-1.786c0-0.186-0.149-0.335-0.446-0.446h-3.131l-1.117,2.232l-1.789,1.563l-2.683,0.669c-0.634,0.373-1.229,0.893-1.788,1.563
	c-0.485,0.596-1.081,1.116-1.789,1.563c-0.484,0.521-0.932,1.116-1.341,1.786l-2.236,0.223l-0.224-4.019
	c-0.075-0.855-0.298-1.749-0.67-2.679l-2.236-1.116c0.708-0.447,1.527-0.818,2.459-1.117c0.634-0.297,1.23-0.744,1.789-1.339
	l1.788-1.563l2.236-1.117l1.117-2.232c0.819-0.26,1.64-0.409,2.46-0.446l1.341,0.893l-0.894-2.456
	c-0.709-0.372-1.528-0.669-2.46-0.893l-1.788,0.893L75.1,64.858c-0.56-0.558-1.006-1.228-1.342-2.009
	c-0.187-0.855-0.335-1.823-0.447-2.902v-3.349l-2.235-1.116l-3.13-10.046l-2.459-4.242c-0.447-0.483-1.044-0.93-1.789-1.34
	c-0.932-0.037-1.9-0.186-2.906-0.446c-0.559-0.595-0.857-1.414-0.895-2.456L59.449,30.7c0.224-0.855,0.819-1.376,1.789-1.563
	l3.13-0.224c-0.149-0.595-0.447-1.19-0.895-1.786c-0.671-0.297-1.341-0.744-2.012-1.34c0.036-0.781,0.26-1.599,0.671-2.456
	l1.341-1.786l0.224-1.339c-0.335,0.111-0.634,0.335-0.895,0.669c-0.298,0.745-0.819,1.34-1.564,1.786
	c-0.597,0.484-1.118,1.08-1.565,1.786l-2.235,7.59l1.118,1.786l-0.224,3.125c-0.373,0.819-1.044,1.266-2.013,1.34
	c-0.559-0.372-1.081-0.893-1.564-1.563l-2.013-1.116c-0.187,0.149-0.335,0.373-0.446,0.67l0.446,1.563l-1.117,0.67l-0.895-0.893
	c-0.41-0.595-0.932-1.19-1.564-1.786l-0.671-1.116l-0.895,0.67c-0.187,0.819-0.335,1.712-0.447,2.679l-1.341-0.669l-2.236,1.116
	l-0.671,0.893l-1.117-0.67l-1.118,2.009c0.037,0.893,0.261,1.786,0.671,2.679c0.671-0.186,1.043-0.707,1.118-1.563v-2.009
	l4.247-0.446c0.261,0.856,0.41,1.75,0.447,2.679l-0.224,2.902l-1.341,5.358c0.521,0.595,0.968,1.265,1.341,2.009
	c-0.261,0.745-0.708,1.415-1.341,2.009c-0.783,0.298-1.677,0.521-2.684,0.669c-0.224-0.558-0.372-1.228-0.446-2.009h1.117
	c0.596-0.372,1.043-0.967,1.342-1.786l-2.013-1.34c-0.484-0.558-1.081-1.079-1.788-1.563c-0.559-0.447-1.081-1.042-1.565-1.786
	l-1.788-6.698l0.224-0.446l0.895-3.349l0.224,0.893c0.446-0.26,0.818-0.632,1.117-1.116c0.671-0.26,1.416-0.409,2.236-0.446h2.235
	l-0.447-0.447l-1.342-0.446l0.447-1.116c0.261-0.707,0.708-1.376,1.342-2.009l0.224,2.902c0.856,0,1.304-0.447,1.341-1.34
	l-0.224-2.902c-0.372-0.632-0.969-1.228-1.788-1.786c-0.447,0.521-0.895,1.116-1.342,1.786l-1.788,0.224l-0.447-1.116l-0.447-2.679
	c-0.373-0.632-0.895-1.228-1.564-1.786c-0.671-0.26-1.342-0.707-2.013-1.339c-0.373-0.67-0.894-1.265-1.564-1.786l-0.224-9.6
	L35.528,5.919z M10.265,71.109c0.559,1.228,0.856,2.567,0.895,4.019l-1.342,0.447c0.372,0.521,0.671,1.191,0.895,2.009l0.447,2.679
	l1.564-0.446c1.192-0.186,2.311-0.707,3.354-1.563c-1.229-0.26-2.347-0.93-3.354-2.009l1.789-0.223l0.447-2.232l-1.789-0.447
	C12.463,72.486,11.494,71.742,10.265,71.109z M9.817,129.154v1.563l0.895-0.223l0.224-1.34H9.817z M10.488,94.104l-0.447,0.893
	l0.671,0.446l0.224-1.116L10.488,94.104z M11.159,23.779l-0.224,2.456c0.335,0.41,0.707,0.633,1.118,0.669l0.224-3.125H11.159z
	 M11.83,159.516c-0.299,0.225-0.597,0.521-0.895,0.893c0.074,0.82,0.372,1.639,0.895,2.457l0.67-2.902L11.83,159.516z
	 M11.159,57.937l1.564,0.223l0.447-0.223H11.159z M11.83,60.393c-0.299,0.223-0.522,0.521-0.671,0.893l1.341-0.223
	C12.389,60.765,12.165,60.542,11.83,60.393z M12.947,124.912l-1.341,2.902l0.671,0.223l1.341-0.445L12.947,124.912z M13.842,102.141
	c0.112,0.781,0.409,1.526,0.895,2.233v-2.01L13.842,102.141z M17.866,25.342c-0.895,0.446-1.864,0.819-2.906,1.116l-0.895,0.223
	c0.074,0.708,0.298,1.451,0.671,2.232c0.969-0.074,1.937-0.372,2.906-0.893l0.671-2.009C18.275,25.714,18.126,25.491,17.866,25.342z
	 M14.065,69.993c0.111,0.67,0.409,1.266,0.895,1.786l0.224-1.786H14.065z M14.96,157.73l-0.895,0.67
	c0.074,0.596,0.298,1.115,0.671,1.563l2.906,1.115l0.447-1.785l-0.224-0.67C17.009,158.215,16.04,157.916,14.96,157.73z
	 M16.972,109.508l-1.788,2.455c-0.373,0.262-0.671,0.633-0.895,1.117l1.342-0.67l2.012-2.01l1.118-0.893H16.972z M15.184,37.621
	c0.074,0.298,0.224,0.521,0.447,0.67l2.459-0.224L15.184,37.621z M15.184,148.131c0.894,0.334,1.862,0.557,2.906,0.67
	L15.184,148.131z M16.748,57.044c-0.299,0.782-0.522,1.601-0.671,2.456l1.342-0.447l1.118-1.116
	C18.052,57.565,17.456,57.267,16.748,57.044z M16.972,126.475l-0.224,2.232l-0.224,0.67h0.447l0.447-2.232L16.972,126.475z
	 M16.972,91.872c0,0.819,0.224,1.638,0.671,2.456C17.567,93.583,17.344,92.765,16.972,91.872z M18.09,117.768l-0.895,5.805
	l1.118-0.223c0.372-0.855,0.671-1.822,0.894-2.902l-0.223-2.457L18.09,117.768z M17.866,72.449c0.148,0.669,0.447,1.265,0.895,1.786
	C18.686,73.602,18.388,73.007,17.866,72.449z M17.866,77.807c0.074,1.042,0.596,1.861,1.564,2.456
	C19.244,79.369,18.723,78.551,17.866,77.807z M18.313,174.25c0.074,1.377,0.745,2.197,2.012,2.457l0.224-1.563l-0.224-0.447
	L18.313,174.25z M18.984,9.714l-0.447,2.456l1.564-0.224l0.447-2.009L18.984,9.714z M19.431,38.96l0.447,2.009l1.565-0.223V38.96
	H19.431z M19.878,60.393l-0.224,1.116l1.342,0.223C20.735,61.212,20.362,60.765,19.878,60.393z M19.654,112.186l0.224,0.67
	l0.224-0.67H19.654z M19.878,145.674l-0.224,2.232l1.565-0.223l0.224-2.01H19.878z M20.772,57.491
	c0.409,0.335,0.856,0.558,1.342,0.669C21.741,57.863,21.294,57.64,20.772,57.491z M21.443,75.574
	c-0.299,0.334-0.447,0.707-0.447,1.116C21.294,76.393,21.443,76.021,21.443,75.574z M20.996,103.927v1.116
	c0.447-0.223,0.819-0.594,1.118-1.116H20.996z M21.891,149.693c0.074,0.371,0.298,0.67,0.67,0.893
	C22.486,150.252,22.263,149.953,21.891,149.693z M22.114,36.058l0.446,0.447C22.523,36.319,22.374,36.17,22.114,36.058z
	 M23.231,88.969l0.224,1.116l1.342-0.446L23.231,88.969z M24.573,28.691l-1.118,0.67c0,0.633,0.148,1.228,0.447,1.786
	C24.274,30.44,24.498,29.622,24.573,28.691z M23.455,155.273l0.224,2.457h1.118l-0.224-2.457H23.455z M26.809,23.333
	c-0.932,0.149-1.9,0.446-2.906,0.893l0.224,1.563l1.118-0.446l3.13-0.67C28.038,24.114,27.517,23.668,26.809,23.333z
	 M23.902,161.078v1.787l0.671,0.445l0.224-0.223l3.354,0.223c-0.224-0.742-0.597-1.486-1.118-2.232H23.902z M24.797,50.123
	l-0.224,2.233h2.012C26.51,51.277,25.914,50.533,24.797,50.123z M24.573,57.714c0.148,0.373,0.447,0.67,0.895,0.893
	C25.355,58.235,25.057,57.937,24.573,57.714z M55.426,104.374l-4.472,0.893c-1.342,0.335-2.161,1.228-2.459,2.679v3.795l0.224,0.445
	l0.447,8.262l-0.224,1.785v0.67c-0.149,1.414-0.522,2.828-1.118,4.242c-0.708,1.191-1.826,1.785-3.354,1.785l-3.13,0.225
	l-0.447-1.563c-0.41-1.043-1.081-2.084-2.012-3.127c-0.149,1.154-0.447,2.42-0.895,3.795c-1.155,0.188-2.273,0.709-3.354,1.564
	l-1.118-2.68l-0.447,0.893c-1.117,0.633-2.459,1.08-4.023,1.34l-0.447-2.232l1.341-10.047h-0.894l-0.224,0.225l-1.789,10.938v3.127
	l0.447,1.34l-2.459,1.115l-0.447,2.232h1.341l0.447,0.223v-0.223l4.695-5.357l2.459,1.115l2.906-1.338l1.789,0.893l3.801,0.223
	l0.447-0.67l1.564-0.223l2.459,1.115c0.298,1.08,0.447,2.271,0.447,3.572l-0.895,0.447c0.037,1.191,0.261,2.531,0.671,4.018
	c0.336,1.451,0.56,3.014,0.671,4.689l-0.447,2.678l-2.012-0.223c-1.565-0.111-2.385-1.004-2.459-2.68l-0.224-1.338
	c-0.933,0.297-1.453,0.967-1.565,2.008l0.671,2.902l1.118-0.445l3.13,1.563c0.483-0.148,0.931-0.447,1.341-0.893l0.224,2.455
	l0.671,1.117l2.012-1.34c0.671-0.967,1.64-1.637,2.906-2.01l-0.446,2.68l1.341-0.67c0.895-0.781,1.938-1.451,3.13-2.01l1.342-0.223
	v3.795l-0.895,2.01l2.906,9.6c1.229,0.41,2.124,1.227,2.683,2.455l0.895,0.447l-0.224-1.117l-0.671-1.563l-1.564-1.115
	c0.074-0.707,0.298-1.451,0.671-2.234c0.968-0.52,1.862-1.264,2.683-2.232c-1.229-0.371-2.646-0.67-4.248-0.893
	c-0.447-1.34-0.671-2.902-0.671-4.688l0.224-5.135c1.304-0.371,2.795-0.596,4.472-0.67l3.801-6.922l1.341-3.795
	c0.224-1.375,0.372-2.939,0.447-4.688c-0.037-1.34-0.261-2.828-0.671-4.465c-0.261-1.488-0.41-3.127-0.446-4.912
	c-0.075-1.303-0.299-2.791-0.671-4.465c-0.075-1.266-0.373-2.68-0.895-4.242c-0.373-1.152-0.895-2.418-1.564-3.795
	c-0.635-0.967-1.454-1.859-2.46-2.678c-0.819-0.744-1.863-1.414-3.13-2.01C58.741,104.597,57.177,104.449,55.426,104.374z
	 M25.021,21.324c0.186,0.41,0.483,0.633,0.894,0.669C25.728,21.696,25.43,21.473,25.021,21.324z M25.021,164.65
	c0.186,0.41,0.483,0.633,0.894,0.67C25.728,165.023,25.43,164.801,25.021,164.65z M25.691,60.393l-0.447,0.893l0.894-0.223
	C26.101,60.765,25.951,60.542,25.691,60.393z M25.914,100.355l-0.223,1.563l1.341-0.223
	C26.846,101.174,26.474,100.728,25.914,100.355z M27.032,48.114c0.298,0.67,0.819,1.191,1.565,1.563
	c0.224,0.67,0.596,1.265,1.117,1.786l-0.224-2.902L27.032,48.114z M29.268,135.629c-1.043,0.633-1.64,1.525-1.788,2.678l2.012-0.223
	v-2.455H29.268z M29.045,107.498c0.074,0.932,0.371,1.824,0.894,2.68C29.827,109.322,29.528,108.43,29.045,107.498z M29.268,12.394
	c0.112,0.41,0.336,0.781,0.671,1.116C29.863,13.063,29.64,12.692,29.268,12.394z M30.386,97.229l-1.118,1.339l0.671,0.224
	l0.895-0.224v-1.116L30.386,97.229z M29.491,112.855v0.447h0.224v-0.447H29.491z M29.938,113.303
	c0.074,0.707,0.224,1.451,0.447,2.232h1.789C31.764,114.643,31.019,113.898,29.938,113.303z M30.609,104.374l-0.224,1.339
	l0.671,0.224L30.609,104.374z M32.621,47.667c-0.521,0.633-0.894,1.377-1.117,2.232c0.559,0.447,1.08,0.968,1.564,1.563l0.447-1.786
	v-2.009H32.621z M33.068,134.959c-0.373,0.67-0.894,1.266-1.564,1.785c0.111,0.707,0.335,1.451,0.671,2.232
	c0.818-0.111,1.266-0.633,1.341-1.563v-2.01C33.479,135.219,33.329,135.07,33.068,134.959z M37.764,90.979l-3.13,1.339l-0.895,2.009
	c0.112,0.223,0.336,0.373,0.671,0.447l2.235-1.786C37.241,92.467,37.614,91.797,37.764,90.979z M34.41,115.982
	c0.111,1.004,0.707,1.6,1.788,1.785C35.975,116.949,35.379,116.354,34.41,115.982z M36.198,86.96
	c-0.298,0.41-0.521,0.856-0.67,1.339l1.341-0.223C36.794,87.667,36.57,87.295,36.198,86.96z M35.975,47.891l-0.223,1.116l0.67-0.223
	L35.975,47.891z M36.646,50.793c-0.335,0.745-0.634,1.563-0.894,2.456l1.117-0.223c0.41-0.558,0.708-1.228,0.895-2.009
	L36.646,50.793z M35.975,137.414l-0.223,1.34l0.67-0.893C36.385,137.713,36.235,137.563,35.975,137.414z M36.198,101.248
	c0,1.042,0.447,1.861,1.342,2.456v-2.233L36.198,101.248z M36.869,133.172l-0.224,0.67l0.447,1.787h0.671v-2.457H36.869z
	 M36.869,10.384v2.232l2.236-0.223C38.807,11.315,38.062,10.645,36.869,10.384z M37.316,79.369l-0.447,0.893h0.895
	C37.726,79.927,37.577,79.63,37.316,79.369z M36.869,173.805v2.455l1.789-0.445c0.224-0.484,0.372-1.08,0.447-1.787L36.869,173.805z
	 M37.764,97.229l0.671,1.116l0.447-1.116H37.764z M40.67,17.082c-0.857,0.223-1.379,0.819-1.564,1.786v2.009l-0.224,0.447
	l0.224,0.223l1.341-0.446l0.224,0.893h-0.671l-0.894,0.893c0.074,0.298,0.223,0.521,0.446,0.67l2.684-0.67
	c0.521-0.521,0.894-1.19,1.117-2.009c-0.447-0.669-0.819-1.414-1.117-2.232C42.16,17.789,41.639,17.269,40.67,17.082z
	 M39.105,163.088c0.371,0.707,0.894,1.303,1.564,1.787l-0.447,0.668l-1.341-0.445l0.224,3.125c0.371,0.818,1.042,1.266,2.012,1.34
	c0.521-0.559,0.895-1.229,1.118-2.01c0.224-0.744,0.595-1.488,1.117-2.232c-0.335-0.67-0.857-1.264-1.564-1.785L39.105,163.088z
	 M39.552,89.192c0.261,0.335,0.634,0.558,1.118,0.67C40.409,89.527,40.036,89.304,39.552,89.192z M39.775,171.348l0.224,0.895
	l0.671-0.67c-0.037-0.186-0.187-0.336-0.447-0.447L39.775,171.348z M39.999,14.403c0.074,0.484,0.298,0.856,0.671,1.116
	C40.595,15.147,40.371,14.775,39.999,14.403z M40.894,107.723l-0.224,0.668l0.224,1.563l-0.895,10.939l0.447-0.445l0.895-3.125
	l0.671-6.475V110.4l-0.224-2.678H40.894z M40.67,82.271c0.335,0.931,0.782,1.898,1.342,2.902l0.67,0.893l1.789-0.67l-1.118-2.009
	C42.57,82.941,41.676,82.57,40.67,82.271z M40.894,76.467v1.563l0.895-0.223l0.224-1.339H40.894z M42.682,93.211l-1.117,7.144
	l0.447,0.67l-1.118,4.912l0.895-0.224c0.819-0.559,1.341-1.45,1.564-2.679c0.298-1.005,0.521-2.195,0.671-3.572l0.224-2.232
	C44.061,95.37,43.539,94.03,42.682,93.211z M42.459,87.183l-0.447,0.893h0.894L42.459,87.183z M42.459,24.002l-0.224,1.786
	l1.788-0.669l0.671-0.893L42.459,24.002z M42.235,160.855l0.446,2.01c0.521-0.074,1.118-0.148,1.789-0.223
	C44.098,161.748,43.353,161.154,42.235,160.855z M42.905,118.215c0.112,0.67,0.41,1.191,0.895,1.563l0.447-1.34L42.905,118.215z
	 M43.353,69.546c0.783,0.075,1.527,0.298,2.236,0.669c0.224,0.521,0.372,1.116,0.446,1.786l-0.223,0.67L43.8,72.895v-0.893
	L43.353,69.546z M45.365,168.893c-0.262,0.148-0.411,0.373-0.447,0.67h0.671v-0.67H45.365z M45.142,17.082
	c0.036,0.334,0.186,0.558,0.447,0.669C45.551,17.454,45.401,17.231,45.142,17.082z M45.142,172.688l0.671,2.232
	c0.26,0.559,0.707,0.932,1.341,1.117l-0.224-2.457C46.482,173.172,45.887,172.875,45.142,172.688z M46.035,10.607l-0.67,3.349
	l1.117-0.224c0.298-0.967,0.521-2.009,0.671-3.125H46.035z M47.153,80.039l-1.564,0.67c0.111,0.41,0.335,0.781,0.67,1.116
	C46.706,81.378,47.004,80.784,47.153,80.039z M47.377,19.984c-0.299,0.708-0.522,1.451-0.671,2.233l1.565-0.224
	c0.298-0.595,0.521-1.264,0.671-2.009H47.377z M46.706,164.65c0.224,1.191,0.969,1.861,2.236,2.01v-2.01H46.706z M51.178,72.672
	c0.596,0.446,1.342,0.745,2.235,0.893l3.13-0.67h1.342c-0.224,0.558-0.597,1.08-1.118,1.563l-6.26,3.349l-0.447-0.893
	c-0.373-0.67-0.671-1.488-0.894-2.456C49.761,73.826,50.432,73.23,51.178,72.672z M49.389,30.7v2.232l2.013-0.223
	C51.065,31.816,50.396,31.147,49.389,30.7z M49.389,153.711v2.232l1.342-0.445c0.187-0.484,0.335-1.08,0.447-1.787H49.389z
	 M51.849,25.565c-0.709,0.446-1.081,1.116-1.118,2.009h1.342c0.559-0.483,0.856-1.153,0.894-2.009H51.849z M50.73,159.07v2.008
	h2.235v-2.008H50.73z M54.308,77.583h2.459l-1.341,2.009l-2.013,0.446C53.749,79.333,54.047,78.514,54.308,77.583z M55.202,31.593
	l-0.447,1.786c0,0.335,0.148,0.558,0.447,0.669l0.447-1.786L55.202,31.593z M54.755,152.371v2.01
	c0.111,0.299,0.335,0.447,0.671,0.447l0.224-2.01L54.755,152.371z M54.979,28.914v1.34l0.447-1.116L54.979,28.914z M54.979,156.391
	v1.34c0.148-0.037,0.298-0.186,0.447-0.447L54.979,156.391z M57.885,18.198c-0.224,0.819-0.373,1.712-0.447,2.679
	c0.335,0.484,0.782,0.782,1.342,0.893c0.335-0.781,0.559-1.599,0.67-2.456C59.263,18.608,58.741,18.236,57.885,18.198z
	 M58.556,99.462l-1.118,0.224c0.224,0.558,0.671,1.004,1.342,1.339l0.894-1.563H58.556z M57.438,164.428v3.125l0.224,0.893
	l0.447,0.225l1.341-0.225v-3.125C58.891,165.023,58.22,164.727,57.438,164.428z M58.332,172.242l-0.224,1.563l0.447,0.223
	l1.341-0.223l0.224-0.447l-0.224-1.115H58.332z M59.003,12.617c-0.373,0.521-0.597,1.116-0.671,1.786h1.117l0.671-1.563
	L59.003,12.617z M69.063,67.09l1.117,0.447l-0.671,1.116c0.634,0.372,1.305,0.596,2.013,0.669c0.931,0.112,1.527,0.633,1.788,1.563
	l-4.247,2.232l-2.46,0.893l-2.012,1.116l-2.459,0.67l-1.565,0.223l0.224-1.339c0.224-0.744,0.596-1.488,1.118-2.232
	c0.67,0.298,1.415,0.521,2.235,0.669l1.342-1.786l0.67-1.339l0.447,0.893c0.484-0.148,0.857-0.446,1.118-0.893l-1.118-0.67
	c0.112-0.334,0.336-0.632,0.671-0.893L69.063,67.09z M61.462,95.22l1.117,2.456c0.261,0.893,0.857,1.339,1.789,1.339l-0.895-2.456
	C62.915,96.077,62.244,95.63,61.462,95.22z M61.909,30.477c0.111,0.819,0.409,1.638,0.894,2.456
	c1.043,0.187,1.565,0.856,1.565,2.009v3.349l3.354-3.349c-0.41-0.632-0.932-1.302-1.565-2.009l-1.788-1.563
	C63.622,30.999,62.803,30.7,61.909,30.477z M64.368,148.354l0.224,3.35c-0.336,0.744-0.857,1.414-1.565,2.008l-0.894,0.447v2.232
	l2.012-1.117l2.012-1.785c0.596-0.482,1.118-1.078,1.565-1.785l-1.789-1.564C65.522,149.545,65.001,148.949,64.368,148.354z
	 M69.51,84.281h3.354l-0.446,2.009c0.148,1.042,0.372,2.084,0.67,3.125c-1.117,0-2.385-0.223-3.801-0.669l-0.446-1.563l0.224-0.67
	L69.51,84.281z M71.522,102.587l1.117,1.563v-1.563H71.522z M73.981,77.583c0.335,0.41,0.559,0.93,0.671,1.563h-1.565l-0.67-1.339
	h1.564V77.583z M73.311,113.973v1.563h1.118v-1.563H73.311z M73.758,53.025v1.563c0.336-0.26,0.559-0.632,0.671-1.116
	C74.316,53.286,74.094,53.137,73.758,53.025z M73.758,123.572v2.68l0.671-0.447C74.429,125.023,74.205,124.279,73.758,123.572z
	 M74.429,80.262l2.235,0.224l-0.224,1.563l-1.564,0.223L74.429,80.262z M79.57,67.983l1.565,0.223
	c-0.522,0.819-1.342,1.266-2.459,1.34l-0.895,3.349c-0.97-0.781-1.64-1.897-2.012-3.349C76.701,68.579,77.968,68.059,79.57,67.983z
	 M78.006,61.732c0.148,0.521,0.447,0.893,0.895,1.116C78.751,62.439,78.453,62.067,78.006,61.732z M79.347,98.346l-0.894,0.67
	l1.117,1.339l3.801,0.223c0.298-0.409,0.521-0.929,0.671-1.563l-1.118-0.447L79.347,98.346z M81.807,86.067
	c-0.56,0.931-1.379,1.824-2.46,2.679c0.895,0.633,1.938,1.228,3.131,1.786c0.818,0.782,1.489,1.75,2.012,2.902l3.801-0.669
	l-0.224-3.349l-1.118-0.446c-0.559,0.745-1.305,1.489-2.235,2.232c-0.895-0.483-1.641-1.302-2.235-2.456l0.67-2.456L81.807,86.067z
	 M80.241,92.765l-0.447,0.669l0.895,0.447C80.651,93.509,80.502,93.137,80.241,92.765z M83.147,123.125l-0.447,1.564l0.224,0.445
	l0.224,0.67c0.447,0.633,1.043,1.229,1.789,1.787l-0.224-2.68C84.266,124.316,83.743,123.721,83.147,123.125z M89.407,92.988
	c-0.111,1.004-0.634,1.823-1.564,2.456c-0.634,0.708-1.006,1.601-1.118,2.679l-0.894,3.125l-0.671,1.116l1.788,0.223
	c0.708,0.708,1.154,1.601,1.342,2.679c0.819,0.483,1.713,0.856,2.683,1.116l1.118,0.447l-1.118-3.573l1.342-0.223l2.459,1.34
	l1.341,0.223v-2.232l-5.589-2.232c-0.782-0.446-1.528-1.042-2.235-1.786c0.671-0.558,1.489-1.079,2.459-1.563h1.118v-2.679
	C91.196,93.621,90.376,93.249,89.407,92.988z M85.607,70.663c0.224,0.596,0.596,1.116,1.117,1.563
	C86.501,71.63,86.128,71.109,85.607,70.663z M87.843,129.6c-0.484,0.484-0.857,1.08-1.118,1.787
	c0.224,0.148,0.521,0.223,0.895,0.223c0.335,0,0.559-0.148,0.671-0.447C88.252,130.68,88.103,130.158,87.843,129.6z M87.843,123.125
	c-0.335,0.521-0.634,1.117-0.895,1.787l1.342-0.223h0.895C88.961,124.057,88.514,123.535,87.843,123.125z M90.749,70.886
	l-2.235,1.339l-0.224,1.34l1.117-0.447l2.46-0.669l0.224-0.447l-0.224-1.116H90.749z M88.514,82.048l0.224,1.786l1.564-0.893
	C89.779,82.57,89.185,82.271,88.514,82.048z M88.737,114.42l-0.224,0.893h0.671L88.737,114.42z M88.961,52.579v-0.447h-0.224
	L88.961,52.579z M88.961,51.016l0.224,0.67v-0.67H88.961z M88.961,109.73c0.521,0.857,1.341,1.303,2.459,1.34
	C90.861,110.289,90.041,109.842,88.961,109.73z M91.42,127.814l-2.013,0.223c0.074,0.447,0.224,0.893,0.447,1.34
	C90.749,129.266,91.271,128.744,91.42,127.814z M94.997,60.393l-2.683,1.116c-0.597,0.446-1.193,1.042-1.789,1.786
	c0.596,0.633,1.267,1.154,2.013,1.563c0.782,0.298,1.602,0.67,2.459,1.116l0.895,0.67l0.223-0.893l-0.446-0.223l-0.671-3.125
	c0.521-0.67,1.266-1.117,2.235-1.34C96.562,60.765,95.816,60.542,94.997,60.393z M91.867,98.123v1.563l1.788-0.447l0.224-1.116
	H91.867z M94.103,92.318l0.447,5.582l1.788-0.223l0.447-3.126l-0.224-0.446L94.103,92.318z M95.221,79.816l-0.671,1.339l0.447,0.447
	h2.906l0.447-0.893c-0.188-0.186-0.485-0.335-0.895-0.447L95.221,79.816z M94.997,126.475l0.447,1.117l0.224-1.117H94.997z
	 M95.668,108.391l-0.224,1.787l2.012,0.223l0.671-0.223l0.224-1.34C97.604,108.652,96.71,108.504,95.668,108.391z M96.785,123.795
	c0.187,0.521,0.56,0.895,1.118,1.117C97.643,124.502,97.27,124.131,96.785,123.795z M98.127,62.849l0.447,2.232l1.117,0.223
	l0.671-0.446v-2.009H98.127z M98.127,69.993c0.111,0.819,0.633,1.266,1.564,1.339C99.58,70.551,99.058,70.104,98.127,69.993z
	 M98.351,105.49c0.111,1.115,0.707,2.008,1.788,2.678C100.139,107.016,99.542,106.123,98.351,105.49z M99.691,102.587
	c0.074,0.298,0.224,0.521,0.447,0.669L99.691,102.587z M100.586,99.462c0.148,0.521,0.447,0.893,0.895,1.116
	C101.368,100.095,101.07,99.723,100.586,99.462z M103.269,57.714c-0.708,0.558-1.305,1.303-1.788,2.232l0.671-0.223l1.788-1.116
	C103.902,58.235,103.679,57.937,103.269,57.714z M103.939,51.463l-1.788,0.893c0.074,0.41,0.298,0.707,0.67,0.893l1.342-0.446
	l0.224-1.116L103.939,51.463z M104.61,107.945c-0.224,1.004-0.82,1.748-1.789,2.232c-0.298,0.297-0.521,0.67-0.67,1.115l1.341,0.447
	c0.596-0.447,1.192-1.041,1.789-1.787l0.447-2.008H104.61z M104.387,124.02c-0.597,0.482-1.118,1.078-1.565,1.785h0.895l1.342-0.445
	C105.058,124.912,104.834,124.465,104.387,124.02z M103.045,133.396c0.148,0.521,0.447,0.893,0.895,1.115
	C103.828,134.029,103.529,133.656,103.045,133.396z M104.834,60.616l-0.671,2.232c0.298,0.521,0.745,0.819,1.342,0.893l0.67-1.786
	C105.914,61.473,105.467,61.026,104.834,60.616z M106.175,55.481l-0.894,1.116l0.671,0.669c0.371-0.223,0.67-0.595,0.894-1.116
	C106.734,55.854,106.511,55.63,106.175,55.481z"/>
<path fill="#FFFFFF" d="M122.439,21.435h5.198v1.34l-1.229,1.116l0.95,6.921l0.894,1.339c0.708-0.335,1.416-0.781,2.124-1.339
	v-2.679l-1.509-6.028c1.788-0.446,3.726-0.67,5.813-0.67h10.116l0.28,6.028l0.95,0.447c1.453-0.074,2.98-0.223,4.583-0.447
	l0.614,0.67c0.148,1.339,1.155,2.084,3.019,2.232l0.614,1.786c-0.894,0.149-1.808,0.373-2.738,0.67l-2.124,3.349
	c-0.782,1.08-2.012,1.897-3.688,2.456c-0.411,0.112-0.708,0.335-0.895,0.67l1.229,2.456c-0.149,0.93-0.969,1.674-2.459,2.232
	c0.707,0.968,1.825,1.786,3.354,2.456c1.154,0.745,2.589,1.266,4.304,1.563c1.825,0.298,2.831,1.265,3.018,2.902l0.95,4.242
	c-0.335,1.191-0.95,2.381-1.844,3.572c-1.379-0.595-2.497-1.488-3.354-2.679l-0.615-1.34c-0.82,0.187-1.547,0.558-2.18,1.117
	l6.763,4.911l2.739,0.224v2.679c-1.752,0-3.689-0.148-5.813-0.446c0.783,0.781,1.49,1.674,2.124,2.679
	c1.118,0.707,2.143,1.6,3.074,2.679l1.229,8.93c-1.341-0.335-2.664-0.855-3.968-1.563c-1.342,0.633-2.05,1.601-2.124,2.902
	c0.969,0.708,2.18,1.377,3.633,2.009c1.192,0.931,1.919,2.121,2.18,3.572v4.912c-1.229,0.261-2.459,0.633-3.688,1.116
	c0.745,0.446,1.248,1.042,1.509,1.786h-3.019c-0.932,0.893-1.546,2.009-1.844,3.349l-0.336,2.009l0.336,0.67l1.509,0.669
	c-0.484,1.116-1.397,2.084-2.738,2.902c0.856,1.116,1.359,2.382,1.509,3.795l1.229,6.697l-3.074-0.225l-1.509-3.795l-1.509-0.668
	l0.279,2.678l1.844,3.572l2.124,0.223l-0.894,5.582h2.123l2.739-2.902c0.745-1.006,1.154-2.195,1.229-3.572
	c0.112-1.078,0.633-2.195,1.565-3.35l0.279,2.01v6.697l-0.279,0.893l-2.181,0.67l0.615,2.01l2.459,0.447l0.336,22.102
	c1.341,0.41,2.868,0.707,4.583,0.893l6.428-0.223l1.788,0.223c-0.037,1.043-0.838,1.639-2.403,1.787h-5.198l-6.427,1.115
	c-0.895,0.857-1.715,1.898-2.46,3.125c0.819,0.781,1.322,1.75,1.51,2.902l-1.23,6.029l2.795,0.67l-0.335,1.563
	c-1.229,0-2.46-0.148-3.689-0.447l-3.018-7.59l-0.336-2.01l-2.738,0.447l-1.509,0.668c0.26,0.67,0.763,1.266,1.509,1.787l1.845,0.67
	l-0.336,2.01h-3.354v2.232c0.074,0.297,0.279,0.521,0.615,0.67l2.738-0.225v1.34h-1.229l-1.788,0.223l-0.336-1.338
	c-0.671,0.074-1.285,0.297-1.844,0.668c-1.082,0.783-1.789,1.824-2.124,3.127v1.34c-0.783-0.559-1.397-1.229-1.845-2.01
	l-0.615-1.563c0.932-0.26,1.845-0.633,2.739-1.117c0.447-0.26,0.856-0.633,1.229-1.115l-0.895-5.135l0.279-1.787
	c0.932-0.855,2.068-1.674,3.41-2.455c1.304-0.521,2.104-1.34,2.403-2.457c-0.299-0.408-0.802-0.705-1.51-0.893l-2.738,0.893
	c-0.97,0.781-1.9,1.676-2.795,2.68c-0.559,1.154-0.95,2.494-1.174,4.02l-0.335,4.688h-2.124l0.279-3.35v-1.115l-3.633,0.893
	l-4.304,1.787c-1.416,0.521-3.056,0.967-4.918,1.338l-2.739,1.117v-2.01c1.416-0.371,2.646-1.041,3.689-2.01l0.614-3.348
	c1.714-0.037,3.54-0.26,5.478-0.67l0.335-1.117c-1.305,0.15-2.627,0.373-3.968,0.67c-0.932-0.781-2.161-1.375-3.689-1.785
	l-2.123,2.01l-0.336-1.117L122.16,43.761c0.521-1.079,0.931-2.344,1.229-3.795l-1.229-17.637L122.439,21.435z M199.85,162.529
	c1.118,0.707,2.03,1.676,2.739,2.902c0.409,0.969,1.229,1.936,2.459,2.902l0.895-0.445l0.335-2.457l-0.335-0.67v-1.563l3.968,0.67
	c0.261,1.191,0.671,2.457,1.229,3.795l0.336,1.564c0.559-0.484,1.062-1.08,1.509-1.787c0.671-0.297,1.49-0.52,2.459-0.67l1.51,1.34
	l0.95-3.572c0.074-0.633,0.483-1.229,1.229-1.785v17.637h-96.078c-0.373-0.074-0.671-0.225-0.895-0.447v-9.6l0.279-2.68l1.565,0.895
	c0.671,1.041,1.266,2.232,1.788,3.57l0.336,3.572h1.229c1.042-0.816,1.751-1.859,2.124-3.125l0.279-3.125l1.564,0.445l5.813,0.67
	c1.564,0.262,3.186,0.707,4.862,1.34c0.26-0.074,0.465-0.223,0.614-0.445l-0.279-0.225l-0.335-2.008
	c0.224-0.188,0.539-0.336,0.95-0.447c1.788,0.111,2.701,0.93,2.738,2.455c1.304,0.484,2.534,1.154,3.689,2.01l2.123,3.35
	c0.783,1.004,2.013,1.674,3.689,2.008c0.895-0.855,1.602-1.896,2.124-3.125c0.483-1.041,0.894-2.307,1.229-3.795v-2.232h1.509v1.785
	h3.969l0.614-1.115c-1.117-0.893-1.826-2.01-2.124-3.35c0.261-1.115,1.286-1.785,3.074-2.01l0.615-1.115
	c0.447,0.893,0.745,1.861,0.895,2.902l4.583,0.893c1.117,0.262,1.937,0.857,2.459,1.787l-1.509,0.223
	c-1.044,0.893-1.659,2.01-1.845,3.348l0.279,1.34l2.459,0.447c0.224-0.037,0.429-0.186,0.615-0.447
	c0.596-1.004,1.099-2.195,1.509-3.572c0.447-1.004,1.063-1.971,1.845-2.902l0.615,2.902h1.844l0.336,3.797l1.509,0.893l3.688-4.689
	l2.739-2.678c1.453,0.26,2.272,1.004,2.459,2.232c0.224,0.93,0.931,1.674,2.124,2.232l0.279-0.893c1.49,0,2.925-0.373,4.304-1.117
	c0.298-1.264,0.503-2.68,0.615-4.242C198.08,164.875,198.694,163.684,199.85,162.529z M122.439,152.707
	c0.447,0.893,0.764,1.861,0.95,2.902C122.942,154.754,122.626,153.787,122.439,152.707z M127.022,136.855l-0.279,1.117l1.229-0.225
	C127.861,137.377,127.544,137.08,127.022,136.855z M130.097,143.777l-2.124,2.008l-0.614,1.787l0.894,0.447
	c0.708-0.559,1.322-1.229,1.845-2.01l0.615-1.787C130.674,144.037,130.469,143.889,130.097,143.777z M127.973,33.491
	c0.074,0.893,0.279,1.786,0.615,2.679l0.895,0.446l0.614-0.223l0.279-2.679C129.706,33.603,128.904,33.528,127.973,33.491z
	 M129.482,110.959l1.509,5.805l1.229,2.455l0.95,1.34l1.229-0.447l0.615-3.125l-0.336-5.135l-1.229-0.447L129.482,110.959z
	 M129.762,97.788v2.902l1.229,0.223l-0.279-3.125H129.762z M129.762,104.485l0.335,3.126c0.484,0.633,1.192,1.152,2.124,1.561
	l-0.279-3.124C131.457,105.453,130.729,104.932,129.762,104.485z M135.295,161.414c0.483,1.041,0.782,2.232,0.895,3.572l-0.615,0.67
	l-2.403-1.117l-2.18-0.223v-1.563l-0.279-0.447h0.279L135.295,161.414z M132.836,125.471c0.224,1.266,1.136,2.232,2.738,2.902
	v-2.902H132.836z M133.45,139.535l-0.614,3.572c0.335,1.004,1.247,1.674,2.738,2.01l-0.279-3.127
	C135.107,141.061,134.493,140.242,133.45,139.535z M134.4,148.242l-0.614,2.902l0.279,0.893l0.614,0.223l1.845-0.223
	c0.26-0.781,0.466-1.674,0.615-2.68C136.394,148.801,135.48,148.428,134.4,148.242z M135.016,166.102
	c0.782,0.521,1.174,1.191,1.174,2.01l-0.895,0.223c-0.597-0.297-1.006-0.594-1.229-0.893L135.016,166.102z M134.68,129.711
	l0.615,1.564l1.845-0.447C136.729,130.121,135.909,129.75,134.68,129.711z M136.804,173.023c0.112,0.445,0.428,0.818,0.95,1.115
	C137.604,173.768,137.288,173.395,136.804,173.023z M137.419,48.449c0.074,0.373,0.279,0.745,0.614,1.116l0.336-0.893
	L137.419,48.449z M138.648,59.835l-0.279,1.116l1.229-0.224C139.486,60.43,139.17,60.133,138.648,59.835z M138.648,70.998
	c0.111,0.968,0.428,2.009,0.95,3.125l0.895,0.893c0.931-0.224,1.844-0.521,2.738-0.893l0.95-1.34l-3.074,0.447L138.648,70.998z
	 M139.263,76.802l-0.614,3.125l1.845,0.447c0.931,1.004,1.639,2.27,2.123,3.795l0.336-0.893l-0.615-3.572
	C141.778,78.625,140.753,77.658,139.263,76.802z M138.983,109.396l-0.335,4.465c0.298,1.041,1.117,1.785,2.459,2.232l0.279-2.01
	v-4.465C140.716,109.508,139.915,109.434,138.983,109.396z M139.878,28.803c-0.447,0.781-0.746,1.674-0.895,2.679l3.019-0.446
	l-0.279-2.232H139.878z M140.213,63.184c-0.372,0.484-0.578,1.08-0.614,1.786l3.018-0.67
	C142.021,63.779,141.22,63.407,140.213,63.184z M141.387,40.858c-0.299,0.484-0.484,1.004-0.559,1.563
	C141.163,41.938,141.35,41.417,141.387,40.858z M140.828,68.318c0.335,0.819,1.136,1.265,2.403,1.339
	C142.821,68.952,142.021,68.505,140.828,68.318z M143.566,33.044c-0.857,0.335-1.677,0.781-2.459,1.339h1.509
	c0.819-0.297,1.546-0.744,2.18-1.339H143.566z M142.952,86.625c-0.411,0.819-0.727,1.712-0.95,2.679l0.614,2.679l1.23,2.233
	c0.186,0.745,0.595,1.488,1.229,2.232l0.614-4.912l-0.279-0.67c-0.522-0.595-1.044-1.264-1.564-2.009L142.952,86.625z M143.847,144
	c0.036,0.781,0.559,1.229,1.564,1.34l0.615-1.34H143.847z M146.641,77.472c-0.895,0.373-1.714,0.968-2.459,1.786
	c0.707,0.41,1.527,0.707,2.459,0.893h2.403l-0.279-1.116C148.689,78.142,147.982,77.621,146.641,77.472z M144.461,64.746
	c0.41,0.298,0.931,0.521,1.565,0.67C145.653,65.081,145.132,64.858,144.461,64.746z M144.461,97.564v2.902l1.845-0.67
	c0.298-0.521,0.503-1.116,0.614-1.786L144.461,97.564z M144.796,102.699v1.563l1.23,0.669l0.614-0.446l0.279-1.339L144.796,102.699z
	 M147.2,122.568l-0.895,0.67l1.229,5.357l-0.615,1.34l0.615,0.223c0.596-1.303,0.895-2.715,0.895-4.242l0.335-3.348H147.2z
	 M147.814,49.119c0.148,0.745,0.466,1.563,0.95,2.456c0.447,0.41,1.062,0.708,1.845,0.893l0.279-2.679L147.814,49.119z
	 M148.765,131.721c0.335,0.969,0.839,1.936,1.509,2.902l1.845,0.447l-0.615,1.563l-0.614,3.572c0.782,0.596,1.695,0.967,2.738,1.115
	l1.565-0.445v-6.252c-0.484-0.781-1.397-1.451-2.739-2.01L148.765,131.721z M149.659,43.091c0.671,0.373,1.191,0.819,1.564,1.339
	C150.255,44.356,149.733,43.91,149.659,43.091z M150.609,90.867c-0.411,0.298-0.615,0.67-0.615,1.116
	C150.366,91.648,150.571,91.277,150.609,90.867z M152.118,83.5l0.335,2.009h2.124C154.316,84.467,153.496,83.798,152.118,83.5z
	 M152.733,41.082h2.123l-0.279,1.563C153.385,42.607,152.77,42.086,152.733,41.082z M153.013,35.277
	c0.559,0.633,0.875,1.377,0.95,2.232C153.516,36.84,153.198,36.096,153.013,35.277z M153.013,124.576
	c0.26,0.635,0.782,1.154,1.564,1.564C154.391,125.508,153.869,124.986,153.013,124.576z M153.348,45.993h2.124v1.116h-2.124V45.993z
	 M153.348,69.881c0.224,0.558,0.727,1.004,1.509,1.339v-1.339H153.348z M153.348,129.266l0.279,2.455l2.18-0.223v-2.01
	C155.099,129.377,154.278,129.303,153.348,129.266z M156.422,104.932h1.509v3.572l-0.894,0.223
	c-0.597-0.482-1.118-1.078-1.565-1.785L156.422,104.932z M155.807,101.36h2.124v2.903
	C157.037,103.444,156.328,102.476,155.807,101.36z M156.422,58.942h1.509c-0.335,0.633-0.838,1.228-1.509,1.786V58.942z
	 M158.546,149.135h1.509v1.563h-1.509V149.135z M158.546,152.484c1.006,0.67,1.509,1.563,1.509,2.678h-1.509V152.484z
	 M168.941,148.912c1.342,0.334,2.664,0.93,3.969,1.785l3.968,1.563c1.192,0.447,2.124,1.191,2.795,2.232
	c-0.708,0.932-1.323,1.973-1.845,3.127c-0.67,1.004-1.49,1.973-2.459,2.902l-4.583-0.225l-0.95,0.225l-0.895-2.01
	c0.56-0.186,1.063-0.484,1.51-0.893c-0.336-1.006-0.839-2.047-1.51-3.127l-1.229-0.67l-0.279,2.234l0.895,2.232l-1.229,0.893
	c-1.752,0.037-2.87,0.707-3.354,2.01c-0.56,0.744-1.473,1.189-2.739,1.338v-1.338l0.895-8.262c0.074-1.152,0.895-2.121,2.459-2.902
	L168.941,148.912z M171.681,163.869c0.483,0.299,0.801,0.67,0.95,1.117l-2.795,0.223c-0.447-0.297-0.746-0.67-0.895-1.117h2.739
	V163.869z M174.475,163.646h3.354v3.348C176.562,166.139,175.443,165.023,174.475,163.646z M175.09,156.725
	c0.111,0.709,0.503,1.377,1.174,2.01C176.114,158.064,175.723,157.395,175.09,156.725z M186.101,146.902
	c1.304,0.111,2.627,0.41,3.968,0.893l-0.335,3.125c0.187,0.225,0.503,0.373,0.95,0.447l2.403-0.447
	c1.118,0.076,2.143,0.373,3.074,0.895l0.335,1.563l-1.844,0.445l-0.615,1.34c-0.671-0.111-1.193-0.408-1.565-0.893
	c-0.596,0.299-1.099,0.67-1.509,1.117l-4.248,0.445c-1.081,0.299-2.012,0.818-2.794,1.563c-0.522,0.336-1.138,0.559-1.845,0.67
	l-0.614-3.795l0.335-0.67c1.043,0.223,2.272,0.373,3.688,0.447v-2.232h-1.564l-1.51,0.223c0.075-0.596,0.372-1.117,0.895-1.563
	h2.795c0.335,0,0.54-0.148,0.614-0.447L186.101,146.902z M184.871,158.289h2.124l-0.615,1.115
	C185.746,159.145,185.243,158.771,184.871,158.289z M192.472,159.627l1.23,2.232c-0.82,0.299-1.733,0.521-2.739,0.67h-1.509
	c0.074-0.594,0.372-1.115,0.895-1.563L192.472,159.627z M201.974,145.34h3.354l-0.279,0.893c-0.261,0.781-0.467,1.674-0.615,2.68
	l2.46,1.563l1.509,5.582l-0.279,3.125c-1.118,0.297-2.348,0.521-3.689,0.67l-3.968,0.223c-1.193-0.111-2.423-0.334-3.689-0.67
	l-0.614-1.115c0.707,0.111,1.527,0.186,2.459,0.223c1.08-0.074,2.198-0.371,3.354-0.893l-1.229-2.232l1.229-2.457l-1.229-1.785
	l0.95-2.68L201.974,145.34z M197.391,146.455c1.229,0.113,2.143,0.635,2.738,1.564C198.899,147.945,197.986,147.424,197.391,146.455
	z M216.953,145.563h2.18v7.367c-0.299,0.633-0.82,1.229-1.565,1.787c-0.894,0.26-1.603,0.707-2.124,1.34l2.46,1.115l0.614,2.455
	l-3.354,0.447c-0.895-0.037-1.714-0.334-2.459-0.893l-1.565-7.367l-0.894-1.117l0.614-0.893l2.124-1.34
	c0.187-0.67,0.503-1.414,0.95-2.232L216.953,145.563z"/>
<path fill="#FFFFFF" d="M276.199,10.272l1.564,2.679l2.684,1.563l2.906,1.116l2.234,1.786c-0.26-0.818-0.633-1.637-1.117-2.456
	l-2.684-1.339c-0.893-0.297-1.713-0.893-2.459-1.786c0.037-0.26,0.188-0.483,0.447-0.67l2.906,0.223l2.236,0.67
	c0.297-0.037,0.521-0.186,0.67-0.446l0.447-1.34h2.459c0.895,0.521,1.863,0.893,2.906,1.116l18.781,1.786l6.035,2.232l2.012,2.009
	c0.373,1.005,0.672,2.121,0.895,3.349l-0.223,2.009l0.67,0.669c0.932-0.334,1.527-1.079,1.789-2.232v-1.563l2.236,0.446
	c0.781,0.484,1.527,1.08,2.234,1.786l-0.447,2.679c1.006,0.075,1.975,0.372,2.906,0.893l-0.67,1.786l0.895,0.223l0.223-0.223
	c0.783,0.038,1.602,0.261,2.461,0.67c0.52,0.893,0.893,1.935,1.117,3.125l0.223,2.456l1.119-0.223h1.117l-0.447,2.902l-4.471,1.786
	c0.035,0.446,0.186,0.893,0.447,1.339l3.576,0.447c0.225,0.446,0.447,0.968,0.672,1.563l-0.447,4.465l-0.672-0.67
	c-0.67-0.67-1.117-1.563-1.342-2.679c-0.186-0.409-0.484-0.781-0.893-1.116l-0.225,1.786v3.349l0.225,0.67l0.893,6.251l-0.67,0.447
	l-1.117,2.456l-2.014,2.009v1.786l0.447,1.786c0.41,0.334,0.932,0.633,1.566,0.893l0.67-0.893c0.559-0.707,1.23-1.376,2.012-2.009
	l1.119-0.447v4.242l2.234-0.223l3.578,0.67c0.855-0.372,1.824-0.67,2.906-0.893l-1.342,6.698c0.148,1.08,0.447,2.196,0.895,3.349
	l0.447,6.697l-1.119-0.223c-0.744-0.409-1.416-1.004-2.012-1.786c0.26-0.744,0.707-1.563,1.342-2.456
	c-0.484-0.781-0.932-1.674-1.342-2.679l0.447-3.349l-1.564-2.456c-0.895-0.372-1.863-0.595-2.906-0.67
	c-0.299,0.075-0.523,0.223-0.672,0.446l0.447,1.34l0.672,0.446l0.447,3.795l1.117,2.902c-0.82,0.372-1.715,0.596-2.684,0.669
	c-0.521-0.297-1.117-0.521-1.787-0.669l-0.672,0.893l-1.34,6.921c-0.225,1.08-0.523,2.196-0.895,3.349l-2.236,1.786
	c-0.521,0.93-0.82,1.973-0.895,3.125l1.789,2.232l0.223,2.232l-0.223,0.67l-0.225,3.349c0,0.335,0.148,0.633,0.447,0.893
	l1.342-0.223v-2.456l0.447-3.572c0.521-0.781,0.969-1.674,1.342-2.679l1.117-11.163c0.037-1.079,0.41-2.121,1.119-3.125
	c0.93,0.446,1.527,1.266,1.787,2.456c-0.299,1.08-0.521,2.27-0.67,3.572l-0.225,3.795l0.447,3.572
	c0.336,0.708,0.932,1.303,1.789,1.786l2.236-2.009c0.371-0.595,0.596-1.339,0.67-2.232l-1.117-0.223
	c0.074-0.67,0.297-1.414,0.67-2.233l-0.67-3.349c0.67-0.409,1.416-0.707,2.234-0.893l0.895,4.465v20.093
	c-0.857,0.41-1.676,0.93-2.459,1.563c0.932,0.148,1.826,0.596,2.684,1.338l0.223,4.02c-0.148,1.08-0.373,2.27-0.67,3.572
	l-0.447,2.455l0.223,0.893l0.447,3.797l-1.117,15.18c-0.111,1.043-0.336,2.232-0.67,3.572l-1.342,6.697l-4.695,11.834l-4.695,7.59
	l-9.389,6.92l-11.402,5.135l-7.379,0.895c-1.006-0.186-1.826-0.781-2.459-1.787l-2.234-1.785c-0.895-0.484-1.865-0.855-2.906-1.117
	c-0.895-0.371-1.715-0.967-2.461-1.785l-0.893-0.225v0.447l0.893,1.563c0.709,0.596,1.527,1.117,2.461,1.563l3.129,1.117
	l0.225,1.115l-0.225,0.447h-2.236l-3.354-0.67c-0.596,0.559-1.266,1.08-2.012,1.563l-3.129-1.115l-7.379-0.67
	c-1.08,0-2.348-0.148-3.801-0.447l-3.576-0.445c-1.043-0.26-2.236-0.484-3.578-0.67l-9.389-2.902
	c-0.82-0.521-1.416-1.34-1.789-2.457l0.67-3.348l-0.445-1.117l-2.014,0.225l-0.223,3.125c-0.076,0.186-0.225,0.334-0.447,0.445
	l-2.906-1.338l-0.895-0.67c0.037-0.633,0.186-1.303,0.447-2.01l-2.684-0.893c0.037-0.707,0.187-1.451,0.447-2.232
	c-0.074-0.299-0.223-0.521-0.447-0.67h-3.129l-0.447-0.67c-0.336-1.041-0.559-2.158-0.671-3.35l-0.224-2.232
	c-0.336,0.037-0.634,0.188-0.895,0.447l-1.117,0.223l-0.225-0.223l0.225-2.01c0.559-0.744,1.378-1.34,2.459-1.785
	c0.856-0.225,1.602-0.744,2.235-1.564c-1.081-0.297-2.198-0.52-3.354-0.668c-0.597-0.855-1.044-1.824-1.341-2.902
	c0.074-1.043,0.297-2.158,0.67-3.35c0.596,0.744,1.118,1.563,1.565,2.455c0.224,0.67,0.596,1.266,1.118,1.787v-5.135l0.223-3.35
	l0.225-0.445l-1.342-2.68c0.596-0.633,1.191-1.377,1.789-2.232l1.341-2.902c0.298-0.67,0.521-1.414,0.671-2.232l-0.224-0.893
	l-0.671-1.117l-2.012,0.223l-1.565,2.457c-0.932-0.559-1.453-1.451-1.565-2.68v-1.34l-6.483,0.225l-2.012,0.445v-1.785
	c0.26-1.006,0.483-2.195,0.671-3.572l0.67-3.35l-1.341-2.678l-0.224-4.02l0.224-1.563l2.012,0.447
	c0.783,0.521,1.229,1.338,1.342,2.455l-1.342,0.67l0.224,1.785c0.372,0.857,0.745,1.824,1.118,2.902l-0.895,2.01l0.447,0.893
	l1.788,2.232l0.895,0.447l2.013-0.447c-0.411-0.93-0.933-1.822-1.565-2.678l0.447-3.572l-1.564-2.68l2.459-0.447l2.906,0.67
	l0.224-1.338l0.224-4.02l0.895-3.348l1.341-2.68c0.708-0.52,1.528-1.041,2.46-1.562l0.223-1.563l-0.223-0.67v-1.563
	c-0.746-0.297-1.417-0.818-2.013-1.563c0.298-1.041,0.521-2.157,0.671-3.349V91.76h-0.224c-1.044,0.335-1.64,1.08-1.788,2.232
	l-0.225,4.019c-0.559,0.745-1.08,1.563-1.564,2.456l-0.895,11.385l-0.895,3.125c-0.969-0.186-1.64-0.781-2.012-1.785l0.671-3.125
	c-0.335-0.967-0.56-2.01-0.671-3.125l0.671-3.349c-0.038-0.968-0.187-2.01-0.447-3.126l-0.671-0.893l-1.564,0.893
	c-0.709,0.596-1.38,1.265-2.013,2.009l-0.447,1.562l1.565,0.447l-0.671,3.126l0.447,2.9l-0.671,0.225
	c-1.118-0.037-1.938-0.633-2.459-1.787l0.671-3.348l-0.895-3.125l-0.224-8.037l0.224-3.795v-3.349l0.224-0.67l2.235-1.786
	c-0.97-0.26-1.788-0.855-2.459-1.786c-0.299-1.005-0.447-2.195-0.447-3.572v-3.125l0.447-0.67c0.633-0.521,1.08-1.264,1.341-2.232
	l-1.341-2.902l0.224-3.795v-3.349l0.224-0.446l0.894-11.386c0.112-1.004,0.336-2.195,0.671-3.572l2.46-9.823l2.459-5.805
	l4.918-7.367l6.484-5.805l2.459-1.563l2.236-2.009l16.096-4.465C274.037,10.98,275.08,10.683,276.199,10.272z M234.615,134.4h1.341
	l-0.224,2.01l-1.117,0.223V134.4z M236.403,141.99c0.969,0.41,1.938,0.932,2.907,1.563c0.447,1.006,0.818,2.121,1.117,3.35v8.484
	c-0.82-0.41-1.416-1.154-1.789-2.232l-1.341-3.127L236.403,141.99z M237.969,63.184l0.447,2.456l1.564-0.446l0.224-1.786
	L237.969,63.184z M238.416,51.574l-0.224,1.116h0.671L238.416,51.574z M238.192,58.718l0.224,0.67l0.223-0.67H238.192z
	 M238.863,72.337c-0.336,0.335-0.559,0.707-0.671,1.116c0.483,0.223,1.08,0.373,1.788,0.446l0.447-1.563H238.863z M243.558,36.84
	c-0.224,1.228-0.597,2.567-1.118,4.019c-0.335,0.968-0.857,2.009-1.564,3.125c-0.82,0.669-1.416,1.563-1.789,2.679
	c0,1.191,0.596,2.009,1.789,2.456c0.484-0.93,0.932-2.046,1.342-3.349l1.341-3.572c0.483-0.93,1.081-1.897,1.788-2.902l0.225-2.456
	H243.558z M260.773,111.629c-0.895,0.371-1.789,0.818-2.684,1.34c-0.559,0.633-1.23,1.227-2.012,1.785l-2.906,0.893l-7.826,3.795
	l-2.682,0.895c0.036,0.707,0.186,1.451,0.447,2.232l12.072-4.242l4.695-2.902c0.596-0.521,1.191-1.191,1.787-2.01l0.447-1.34
	l-0.223-0.445H260.773z M245.793,52.467l-0.223,1.34l0.67,0.446l1.565-0.223l0.224-1.563H245.793z M253.395,66.309l-5.142,1.786
	c-0.597,0.41-1.118,0.93-1.565,1.563l-0.223,2.009c0.111,0.223,0.334,0.373,0.67,0.447l2.012-1.116l1.789-1.563l2.906-1.786v-1.116
	L253.395,66.309z M246.465,157.395c0.036,0.484,0.26,0.857,0.67,1.117C247.06,158.064,246.836,157.693,246.465,157.395z
	 M247.358,110.959v1.115h2.46v-1.115H247.358z M248.924,27.91c-0.336,0.41-0.559,0.856-0.671,1.339h0.894l0.447-1.116L248.924,27.91
	z M252.053,136.633l-2.906,1.785l-0.894,2.457l0.671,0.223c0.969-0.297,2.012-0.744,3.129-1.34l0.447-2.455
	C252.426,137.006,252.277,136.781,252.053,136.633z M255.184,143.107v2.232l-2.236,0.223c-0.857-0.371-1.676-0.967-2.459-1.785
	l-1.789-0.225l0.225,2.232l-0.447,2.902c0.037,0.15,0.186,0.299,0.447,0.447c0.856-0.186,1.75-0.482,2.683-0.893l2.013-0.223
	c0.26,0.371,0.633,0.668,1.117,0.893l1.117-3.35l0.447-2.455H255.184z M249.146,82.383l-0.223,1.339
	c0.036,0.149,0.186,0.298,0.447,0.447l0.223-0.224l0.225-1.339L249.146,82.383z M249.371,79.035l-0.225,1.116
	c0.56-0.112,1.006-0.483,1.342-1.116H249.371z M250.936,48.226c-0.559,0.558-0.932,1.228-1.117,2.009
	c0.483,0.521,1.08,0.893,1.788,1.116c0.409-0.521,0.707-1.19,0.894-2.009C252.277,48.635,251.755,48.263,250.936,48.226z
	 M255.631,124.801l-2.906,1.563c-0.857,0.596-1.379,1.488-1.565,2.68l1.341,2.902l0.895,3.348c0.373,0.299,0.82,0.447,1.342,0.447
	l0.223-1.787v-4.242c0.188-0.781,0.561-1.674,1.119-2.678l0.67-2.232H255.631z M254.066,151.59c-0.709,0.188-1.306,0.635-1.789,1.34
	c-0.559,0.447-0.932,1.043-1.118,1.787c0.483,0.445,1.08,0.818,1.788,1.115c0.707,0.299,1.305,0.746,1.789,1.34l0.223,2.902
	c-0.818,0.223-1.713,0.373-2.682,0.447l-0.447,2.455v2.902l2.459,0.447l2.684-0.447l0.223-1.787l-0.223-0.668l-0.225-5.805
	l-1.117-4.912C255.221,152.225,254.699,151.852,254.066,151.59z M251.606,36.616l0.224,3.126l0.223,1.116h1.119l0.223-0.447
	l0.447-2.902C253.134,37.101,252.389,36.803,251.606,36.616z M283.576,43.537c-0.709,0.41-1.305,1.005-1.789,1.786
	c-0.559,0.558-1.229,1.005-2.012,1.339h-16.768l-11.178-2.009v0.893l1.564,1.786l0.447,0.893l23.922,1.116l-0.223,1.786
	l-1.566,5.358l-0.447,13.619l-0.895,6.251l-2.906,0.67c-0.67,0.446-1.191,1.042-1.564,1.786c0.299,0.745,0.746,1.489,1.342,2.233
	c0.633,0.558,1.453,0.93,2.459,1.116c0.559,0.707,0.857,1.6,0.895,2.679v21.209c-0.037,1.005-0.188,2.046-0.447,3.124l-0.895,2.457
	c0.41,0.781,0.707,1.674,0.895,2.678v3.572c-0.262,0.82-0.635,1.639-1.117,2.457l-4.473,2.455c-0.932,0.188-1.527,0.781-1.787,1.785
	l0.223,1.117l1.789-0.223l2.234-1.34l2.908-0.67c0.408,0.596,0.781,1.266,1.117,2.01l0.67,9.822c0.148,0.893,0.447,1.787,0.895,2.68
	l2.459,4.688l0.895,2.457c0.633,0.334,1.23,0.781,1.789,1.338l-1.342,2.232c0.559,0.635,1.23,1.154,2.012,1.564l2.236,0.223
	l0.67-0.223l2.459-1.117l3.131-0.447c0.895-0.111,1.789-0.334,2.684-0.668l1.787-1.787l2.906-0.67l25.711,2.01h0.895
	c-0.188-0.482-0.484-1.004-0.895-1.563c-0.447-0.596-1.043-1.191-1.789-1.787l-23.475-1.34l2.014-8.705l0.893-16.521
	c0.037-0.967,0.561-1.637,1.566-2.01c0.855-0.186,1.75-0.482,2.682-0.893c-0.074-0.818-0.223-1.637-0.447-2.455
	c-0.447-0.67-0.969-1.34-1.564-2.01h-2.012l-0.225-1.34l-0.223-24.333l0.895-2.679l0.223-1.786l-0.223-0.67l-0.447-6.251l0.447-0.67
	l2.234-1.339l2.461-0.893c0.67-0.372,1.34-0.893,2.012-1.563c0.074-0.483,0.148-1.079,0.223-1.786l-1.117,0.223l-5.143,1.786h-1.564
	v-2.233l-1.117-9.376c-0.113-0.93-0.336-1.897-0.672-2.902l-1.342-2.009l-2.012-5.135l-1.789-1.339l1.119-2.232
	c-0.709-0.483-1.529-0.856-2.459-1.117L283.576,43.537z M256.078,93.992c-0.523,0.596-0.895,1.266-1.119,2.009l-0.67,1.563v-0.893
	l-2.459,0.223l0.223,7.144l1.119-0.223c0.559-0.446,1.229-0.818,2.012-1.116l4.471,0.447l0.672-0.224
	c0.297-0.521,0.447-1.19,0.447-2.009c-0.412-0.483-0.934-0.93-1.566-1.339l-2.234-0.67c-0.561-0.186-1.006-0.483-1.342-0.893
	l1.564-1.339c0.373-0.483,0.596-1.079,0.67-1.786C257.381,94.477,256.785,94.179,256.078,93.992z M253.172,21.882l-0.895,3.125
	v3.125l0.223,0.67l0.225,4.912c0.559-0.074,1.08-0.372,1.564-0.893l-0.895-0.893l1.117-1.34l0.225-2.456l-0.447-0.67l-0.223-0.893
	l0.445-2.232C254.215,23.482,253.768,22.663,253.172,21.882z M254.512,162.529l0.672,0.895l-1.342,0.445
	C253.953,163.461,254.178,163.014,254.512,162.529z M254.959,106.941c0.188,0.484,0.561,0.781,1.119,0.893
	C255.854,107.498,255.48,107.201,254.959,106.941z M257.195,90.867c-0.559,0.447-0.932,1.042-1.117,1.786h2.906
	C258.76,91.76,258.164,91.165,257.195,90.867z M256.748,69.881c0.336,0.521,0.857,0.819,1.564,0.893
	C257.865,70.403,257.344,70.104,256.748,69.881z M257.865,140.428c-0.223,0.781-0.371,1.674-0.445,2.68
	c0.559,0.297,1.229,0.445,2.012,0.445l0.447-1.563l-0.225-0.67C259.133,140.912,258.537,140.615,257.865,140.428z M258.09,71.89
	l-0.447,2.009l0.447,0.893l1.342-0.446l0.67-1.786L258.09,71.89z M257.865,59.165v2.456l1.342-0.223v-2.009L257.865,59.165z
	 M259.432,169.004c0.371,0.596,0.969,1.043,1.787,1.34C260.959,169.6,260.361,169.154,259.432,169.004z M259.879,161.191
	c0.334,0.521,0.855,0.818,1.564,0.893C260.996,161.713,260.475,161.414,259.879,161.191z M261.219,106.494l-0.893,0.223l-0.225,1.34
	l0.672,0.447l0.893-1.34C261.592,106.867,261.443,106.643,261.219,106.494z M260.326,152.26c0,0.969,0.447,1.713,1.34,2.232
	l-0.223-2.232H260.326z M266.139,132.391c-0.336,0.781-0.783,1.527-1.342,2.232l-3.131,0.447l-0.447,2.01l0.225,0.668v0.895
	l1.564,0.223l2.684-1.34c0.855-0.074,1.75-0.297,2.682-0.67c-0.074-0.967-0.223-2.01-0.447-3.125
	C267.441,133.248,266.846,132.801,266.139,132.391z M261.666,98.011l1.566,2.009c0.482-0.037,1.006-0.186,1.564-0.446l0.223-1.116
	l-0.223-0.447H261.666z M262.113,94.662l0.225,0.67l0.447,0.223l0.223-1.339h-0.67L262.113,94.662z M280.447,161.414
	c-1.008,0.334-2.051,0.781-3.131,1.34l-2.906,1.338l-10.061,6.922c-0.447,0.373-0.895,0.818-1.342,1.34
	c0,0.41,0.148,0.781,0.447,1.115c1.006,0.225,1.9,0.746,2.684,1.563l1.787,0.225v-2.01l-0.67-0.893l5.143-2.01l2.012-2.232
	l5.143-3.35l2.234-2.008l0.672-1.34H280.447z M267.48,157.842l-4.025,1.785c0.074,0.635,0.299,1.229,0.672,1.787
	c0.818-0.484,1.639-1.078,2.459-1.787c0.447-0.186,0.969-0.482,1.564-0.893C268.039,158.438,267.814,158.141,267.48,157.842z
	 M266.809,101.137l-1.117,0.669c0.037,1.005,0.186,2.046,0.447,3.125l0.895-0.223v-3.572H266.809z M273.74,137.303l-2.461,1.34
	l-2.012,1.785l-2.906,0.893l1.564,1.117l1.342,0.445l0.672-0.223l0.67-0.445c0.633-0.41,1.23-1.006,1.789-1.787
	c0.855-0.148,1.75-0.445,2.682-0.893v-2.232H273.74z M266.809,91.537c0.186,0.41,0.484,0.633,0.895,0.67L266.809,91.537z
	 M271.057,106.271c-0.969,0.41-1.938,0.93-2.906,1.563l-1.117,0.67c0.111,0.521,0.408,0.967,0.893,1.338
	c1.043-0.297,2.088-0.742,3.131-1.338c0.41-0.633,0.707-1.377,0.895-2.232H271.057z M267.48,111.629l-0.225,1.563
	c0.111,0.223,0.336,0.373,0.67,0.445l0.225-1.115l-0.225-0.447C267.889,111.889,267.74,111.74,267.48,111.629z M269.939,144.893
	l-1.789,2.457l-0.67,1.563l1.564-0.225h2.459v-3.795H269.939z M269.715,16.077c-0.521,0.596-0.895,1.266-1.117,2.009l1.342,0.223
	l1.117-0.446l-0.223-1.786H269.715z M268.598,126.809c0.074,0.41,0.297,0.783,0.67,1.117
	C269.156,127.518,268.934,127.145,268.598,126.809z M269.715,133.73c0.037,1.004,0.186,2.047,0.447,3.125l0.895-0.67
	c0.186-0.482,0.336-1.078,0.447-1.785l-0.225-0.67H269.715z M272.846,131.051c0.148,0.373,0.447,0.596,0.895,0.67
	C273.516,131.424,273.217,131.201,272.846,131.051z M275.305,143.553L274.41,144l0.223,2.01l0.895,0.445l3.131-0.67L278.434,144
	C277.465,143.814,276.422,143.666,275.305,143.553z M279.328,174.363c-0.781,0.297-1.527,0.744-2.234,1.338v1.117l1.34,0.223
	l0.447-0.223c0.709-0.26,1.379-0.707,2.014-1.34C280.482,174.996,279.961,174.623,279.328,174.363z M278.211,40.635v2.456h2.012
	v-0.223l0.225-2.009L278.211,40.635z M281.564,151.814c-0.484,0.707-0.857,1.525-1.117,2.455l0.67,0.67l2.906-0.67l-0.223-1.563
	C283.092,152.299,282.348,152,281.564,151.814z M280.895,157.842l0.223,0.67l0.223-0.67H280.895z M285.141,146.902h2.014
	l-0.447,1.117l-0.447,0.445l-1.119-0.445V146.902z M286.482,152.93l-0.223,1.34h0.67l0.225-1.115L286.482,152.93z M287.602,20.766
	l-1.119,0.223c0.074,0.781,0.373,1.526,0.895,2.232h0.895v-2.009C288.121,21.026,287.898,20.877,287.602,20.766z M287.154,27.017
	l-0.225,2.232l0.225,0.893l0.223,0.446h0.67l0.225-3.125v-0.446H287.154z M287.154,11.835l0.447,0.893l0.223-0.893H287.154z
	 M287.602,34.161c0.26,0.707,0.707,1.303,1.34,1.786C288.643,35.277,288.195,34.682,287.602,34.161z M287.602,156.502
	c0.334,0.744,0.855,1.414,1.564,2.01C288.83,157.768,288.309,157.098,287.602,156.502z M288.941,161.859l-0.447,3.572h0.895
	l0.225-1.785C289.463,163.014,289.24,162.418,288.941,161.859z M288.494,169.229v2.455l1.566-0.223v-2.232H288.494z
	 M288.941,179.051c0.037,0.596,0.262,1.115,0.672,1.563L288.941,179.051z M289.613,38.179l0.223,1.339l1.119-0.446L289.613,38.179z
	 M290.061,44.207l1.564,0.223c-0.037,0.41-0.188,0.781-0.447,1.116h-1.564L290.061,44.207z M292.742,38.849l0.447,1.563
	c0.037,0.223,0.186,0.373,0.447,0.447l0.225-0.224l1.564-0.223c0.297-0.744,0.521-1.563,0.67-2.456h-2.906L292.742,38.849z
	 M309.063,17.417c0,0.856,0.148,1.675,0.447,2.456l-0.447,0.67c-0.932,0.334-1.9,0.781-2.906,1.339
	c-0.895,0.446-1.787,0.968-2.682,1.563l-7.602,5.135l-1.342,1.116l0.223,1.563c0.932-0.074,1.975-0.297,3.131-0.67
	c0.895-0.409,1.789-0.929,2.684-1.563c0.893-0.409,1.787-0.93,2.682-1.563l7.826-4.911l2.234-2.009l0.447-1.563L309.063,17.417z
	 M295.426,33.938l-0.225,0.669l0.672-0.223C295.836,34.198,295.686,34.049,295.426,33.938z M296.543,15.631
	c-0.373,0.745-0.67,1.563-0.895,2.456l1.119,0.223l0.447-0.223h0.447l0.67-0.223c0.559-0.483,1.006-1.153,1.342-2.009
	L296.543,15.631z M296.32,149.357v2.457h2.012v-0.225l0.223-2.008L296.32,149.357z M299.674,46.216l-1.566,0.446v1.563h0.225
	c0.633,0.446,1.379,0.67,2.236,0.67c0.855-0.112,1.377-0.632,1.564-1.563C301.535,46.663,300.717,46.292,299.674,46.216z
	 M307.051,50.012l-4.918,2.456c-0.299,0.781-0.447,1.601-0.447,2.456c0.111,0.223,0.336,0.372,0.67,0.446l5.59-3.795
	c0.744-0.26,1.49-0.706,2.236-1.339L307.051,50.012z M303.027,60.504v1.116c0.408-0.26,0.781-0.632,1.117-1.116H303.027z
	 M308.393,82.83c-1.117,0.261-2.236,0.708-3.354,1.34l-0.225,2.232l0.895-0.223l3.131-1.563c0.371-0.483,0.67-1.079,0.895-1.786
	H308.393z M308.393,43.537c-1.156,0.038-2.273,0.41-3.354,1.116c0.037,1.042,0.26,2.084,0.67,3.126
	c0.82-0.558,1.641-1.228,2.459-2.009l1.119-2.233H308.393z M306.156,55.816c-0.521,0.595-0.895,1.339-1.117,2.232
	c0.223,0.372,0.596,0.669,1.117,0.893l0.895-0.224v-2.456L306.156,55.816z M306.156,174.363l-0.447,0.668l0.447,1.564l1.342-0.225
	l0.67-1.785L306.156,174.363z M307.498,28.803l0.67,0.669C308.057,29.175,307.834,28.952,307.498,28.803z M307.498,64.746
	c0.074,0.373,0.299,0.67,0.67,0.893C308.02,65.342,307.797,65.044,307.498,64.746z M312.863,53.807
	c-0.41,0.595-1.006,1.042-1.787,1.339l-2.908,0.223c0,0.893,0.148,1.786,0.447,2.679c0.41,0.633,1.006,1.228,1.789,1.786
	l1.342-2.009l3.129-0.447l0.447-2.902C314.504,54.179,313.684,53.956,312.863,53.807z M308.615,78.811
	c0.074,0.633,0.373,1.228,0.895,1.786C309.473,79.965,309.176,79.369,308.615,78.811z M311.521,31.258
	c-0.484,0.856-1.229,1.451-2.234,1.786l-0.447,1.563l3.801-1.786l0.447-1.563H311.521z M309.287,100.02v0.893l0.895-0.446
	L309.287,100.02z M309.734,87.518l-0.225,2.902l0.672,0.893l0.447-0.447l0.447-2.456L309.734,87.518z M312.416,92.43l-0.223,0.67
	l0.223,1.786l2.459-0.223C314.391,93.695,313.57,92.951,312.416,92.43z M314.205,96.895l-0.447,1.34l0.895-0.224
	C314.615,97.64,314.465,97.267,314.205,96.895z M331.643,70.104l-3.129,0.893l-7.377,3.795l-2.236,1.563l-2.684,1.116
	c-0.857,0.558-1.305,1.377-1.342,2.456l0.225,1.117l1.789-0.447l14.754-7.59c0.783-0.335,1.527-0.856,2.236-1.563l-0.223-1.339
	H331.643z M315.1,38.179l0.223,2.232l0.895-0.223v-2.009H315.1z M315.322,84.169l-0.223,1.786l0.895-0.223l0.223-1.563H315.322z
	 M315.322,30.142v1.339l1.342-0.223C316.365,30.775,315.918,30.403,315.322,30.142z M315.547,22.105
	c0.148,0.819,0.67,1.266,1.564,1.339C316.924,22.775,316.402,22.328,315.547,22.105z M323.148,88.634
	c-0.336,0.521-0.635,1.116-0.895,1.786l-1.342-0.67c-1.156-0.26-2.496-0.409-4.023-0.446l-1.119,0.446
	c0.037,0.819,0.188,1.638,0.447,2.456l2.906,1.339c1.23,0.187,2.348,0.707,3.354,1.563c0.672,0.334,1.416,0.558,2.236,0.669
	l0.223-0.893c-0.334-0.521-0.559-1.116-0.67-1.786l0.447-4.465H323.148z M317.111,48.896l-0.223,2.009l0.223,0.669
	c0.037,0.298,0.186,0.521,0.447,0.67l1.117-0.446c0.299-0.744,0.521-1.563,0.672-2.456L317.111,48.896z M317.783,117.656
	c-0.412,0.744-0.709,1.563-0.895,2.455l1.34,0.67l0.672-2.678L317.783,117.656z M317.559,99.797v1.34l2.012,0.669l0.895-0.446
	l0.225-1.116l-0.225-0.224L317.559,99.797z M317.559,131.051v2.232l1.342-0.223v-2.01H317.559z M318.453,121.451
	c0.186,0.707,0.707,1.08,1.564,1.117C319.57,122.121,319.049,121.75,318.453,121.451z M321.359,94.439l-2.236,1.786
	c-0.223,0.149-0.373,0.372-0.447,0.669l0.672,1.786c0.895-0.186,1.639-0.707,2.234-1.563l0.447-2.009
	C321.918,94.811,321.695,94.588,321.359,94.439z M319.348,109.619v1.34l0.447-1.117L319.348,109.619z M319.795,26.57l0.223,8.707
	l0.447,2.456l0.895,2.009c0.447,0.521,1.043,0.893,1.789,1.116c0.521-0.224,1.043-0.595,1.564-1.116
	c0.371-0.521,0.596-1.117,0.67-1.786l-1.34-1.563l-1.789-1.339l-0.447-2.456c0.67-0.298,1.416-0.521,2.236-0.67h0.893v-4.912
	l-2.234-0.447H319.795z M322.254,56.933l-0.447,1.786c0.148,0.521,0.297,1.117,0.447,1.786c-0.262,1.08-0.635,2.196-1.117,3.349
	l-1.119,3.126c0.074,0.41,0.299,0.633,0.672,0.669l1.787-0.446c0.783-0.483,1.602-1.153,2.459-2.009
	c0.336-0.483,0.635-1.079,0.895-1.786c0-0.372-0.148-0.744-0.447-1.116c-0.67-0.855-1.117-1.897-1.34-3.125
	C323.93,58.086,323.334,57.342,322.254,56.933z M326.949,43.091c-0.971,0.558-2.014,0.856-3.131,0.893l-2.012-0.447l-0.447,1.116
	l-0.67,3.572l0.447-0.893c0.482-0.074,1.08-0.148,1.787-0.223l1.789,0.67c0.969,0.484,2.012,0.856,3.131,1.116l-0.225-2.233
	l0.67-3.125L326.949,43.091z M320.689,84.393c0.186,0.521,0.559,0.893,1.117,1.116C321.508,85.1,321.137,84.728,320.689,84.393z
	 M322.029,28.58c0.336,0.075,0.635,0.298,0.895,0.669l-1.117,0.893l-0.225-1.339h0.447V28.58z M322.924,158.734l0.225,2.232
	l-0.447,0.67c-0.336,0.707-0.559,1.451-0.672,2.232l0.672,3.572l-0.672,0.447c0.113,0.855,0.41,1.674,0.895,2.455
	c0.521-0.371,0.969-0.893,1.342-1.563l0.225-3.795l-0.225-3.795C324.229,160.186,323.781,159.367,322.924,158.734z M330.078,120.336
	c-0.707,0.334-1.453,0.781-2.234,1.338l-4.92,3.127l0.672,1.34l4.693-2.01c0.672-0.371,1.193-0.967,1.566-1.787l0.67-1.338
	C330.451,120.707,330.303,120.484,330.078,120.336z M323.371,151.59l-0.223,3.35l-0.225,0.893l0.672,0.447l1.117-0.223l0.447-2.902
	C324.75,152.521,324.154,152,323.371,151.59z M324.936,141.098c-0.445,0.67-0.744,1.414-0.893,2.232
	c0.633,0.447,1.377,0.67,2.234,0.67c0.336-0.596,0.559-1.264,0.672-2.01C326.314,141.619,325.645,141.32,324.936,141.098z
	 M326.055,51.574c-0.598,0.856-1.119,1.824-1.564,2.902l-0.225,1.34c0.596-0.112,1.266-0.335,2.012-0.67
	c0.672-0.595,1.342-1.339,2.012-2.232l0.225-1.34H326.055z M327.172,111.852l-1.117,1.34l0.67,0.67l0.895-1.34
	C327.545,112.225,327.396,112,327.172,111.852z M327.172,108.504l-0.447,0.893l0.225,0.445l0.67,0.225l0.225-1.34L327.172,108.504z
	 M326.949,80.374v1.116h2.459v-1.116H326.949z M327.172,163.199c0.225,0.596,0.672,1.043,1.342,1.34
	C328.514,163.795,328.066,163.35,327.172,163.199z M328.514,138.643l0.223,1.563l2.236-0.223v-1.34H328.514z M329.631,34.161v0.893
	l0.672-0.67L329.631,34.161z M336.115,143.33l-2.012,2.902l-1.566,3.125l-0.895,3.797l-0.223,2.678l1.564-0.223
	c0.225-1.078,0.596-2.27,1.119-3.572l1.34-3.35l2.236-2.455C337.568,145.117,337.045,144.148,336.115,143.33z M336.338,37.063
	c0.783,0.633,1.379,1.526,1.789,2.679l2.012,6.697l0.225,3.349l-0.447,0.446c-0.971-0.074-1.863-0.521-2.684-1.339l-0.895-3.349
	l-0.223-4.242L336.338,37.063z M336.338,118.773l0.225,1.563c0.482-0.037,1.006-0.186,1.564-0.447
	C337.605,119.406,337.01,119.033,336.338,118.773z M336.785,127.033l-0.223,2.232h2.012l-0.225-2.232H336.785z M338.127,139.758
	l-0.447,1.117h0.895C338.537,140.504,338.387,140.131,338.127,139.758z M340.811,56.263h1.34l-0.223,1.786l-1.117,0.223V56.263z"/>
<path fill="#FFFFFF" d="M429.119,14.458h27.945c0.447,1.601,0.671,3.313,0.671,5.135l-0.224,21.209l-0.224,0.67
	c-1.043,0.373-1.863,1.042-2.459,2.009l2.906,0.223v2.679l-3.13,0.67l0.447,1.116c-1.118,0.372-2.459,0.669-4.024,0.893h-3.577
	l-1.788,0.223l-10.731-0.447c-1.229-0.297-2.646-0.744-4.248-1.339l-0.447-2.902l-0.894-0.446h-0.447v0.223
	c-0.187,1.339-0.857,2.605-2.012,3.795c-1.38-0.037-2.795-0.335-4.248-0.893c-1.081-0.744-2.348-1.34-3.801-1.786
	c-1.342,0.149-2.832,0.446-4.472,0.893l1.342,3.125l-0.671,0.446c-0.82,0.931-1.49,2.121-2.012,3.572
	c-0.783,0.856-1.603,1.897-2.46,3.125l-1.788,9.376v4.688l-0.224,0.67v1.339l-3.354-1.116c-1.229-0.521-2.646-0.967-4.248-1.339
	h-0.894l0.223,2.232l1.118,0.67c1.304,0.223,2.72,0.669,4.248,1.339c1.118,0.707,1.937,1.823,2.459,3.349v2.456l-0.224,1.563v0.447
	l-0.671,2.232l0.447,2.902c0.336,1.451,0.56,3.163,0.671,5.135l0.224,15.627l-0.224,0.67v4.018l-1.118,0.447l-1.564-0.447
	l-1.342,1.785c-0.335,1.006-0.559,2.197-0.671,3.572l0.671,0.447l1.565,0.67c0.372-0.744,0.671-1.563,0.895-2.457
	c0.818,0.596,1.415,1.416,1.788,2.457c0.298,1.6,0.447,3.313,0.447,5.135c0.111,0.484,0.186,1.08,0.224,1.785l-0.224,0.447
	l-0.224,8.26l0.447,5.135c0.335,1.266,0.856,2.605,1.564,4.02l0.671,2.008l-18.779,0.895l-4.695,0.893
	c-1.192,0.41-2.385,1.08-3.577,2.01c1.304,0.521,2.72,0.818,4.248,0.893l20.121-2.232l5.142,0.445l2.684,2.902l2.459,0.225
	l0.895-0.225l9.837-0.445c0.335,0.484,0.782,0.855,1.341,1.115c1.378,0.076,2.72,0.596,4.024,1.563
	c0.782,1.117,1.825,1.936,3.13,2.457c1.49-0.336,3.13-0.559,4.919-0.67c0.298-1.191,0.894-2.455,1.788-3.795l-1.564-0.893
	c-0.485,0.521-1.156,0.818-2.013,0.893h-2.459c0.409-0.67,0.931-1.266,1.564-1.787c-0.745-1.004-1.416-2.195-2.012-3.572
	l-0.224-20.314l-1.118-0.447c-1.528-0.26-3.241-0.408-5.142-0.447l-3.354,0.225l-0.224-2.01c-0.224-1.264-0.895-2.381-2.012-3.35
	c-0.56-1.338-0.933-2.826-1.118-4.465v-5.58l3.801-0.447l0.895,0.223l0.446,2.01l2.907-0.223c0.335-1.563,1.229-2.531,2.683-2.902
	l0.224,0.67l-0.895,9.377c-0.522,1.264-1.565,2.084-3.13,2.455c-0.857,0.447-1.379,1.191-1.565,2.232l6.931-0.447
	c1.043-0.52,2.013-1.338,2.906-2.455l0.447-2.01c-0.708-0.297-1.155-0.818-1.341-1.563l1.117-6.697
	c-0.708-0.186-1.453-0.482-2.235-0.893l0.224-1.117h2.683l0.224,1.563l1.342,4.242c0.224,1.303,0.596,2.717,1.117,4.242
	c1.49-0.186,2.385-1.004,2.684-2.455c-1.156-0.67-1.752-1.787-1.789-3.35l2.459,0.223v-2.902c1.192-0.744,1.938-1.859,2.236-3.348
	l1.117-2.232c0.261,0.484,0.484,1.08,0.671,1.787l0.447,2.008l-2.012,1.115c-0.336,0.336-0.635,0.781-0.895,1.34l0.671,2.68
	c0.298,1.451,0.447,3.014,0.447,4.688c-1.118,0.447-2.312,1.117-3.577,2.01l-1.342,0.67c0.037,0.893,0.261,1.785,0.671,2.68
	c1.154-0.447,2.272-1.191,3.354-2.232c1.267-0.744,1.937-1.936,2.012-3.572l0.224-5.359l0.224-1.338h1.342l-0.224,4.688l6.036-2.902
	c1.154-0.633,2.496-1.078,4.024-1.34l0.447-1.115h1.117v2.455h-0.894c-1.156,0.299-1.752,1.117-1.789,2.455
	c-0.187,1.043-0.559,1.936-1.118,2.68l-2.906,0.223l-0.671-0.223l-0.223,1.34l1.788,0.223l0.671-0.223l0.671-0.447l0.67,0.67
	c0.671,0.707,1.565,1.08,2.684,1.117l0.446-1.117l1.118,3.35l-0.224,26.789c-0.224,1.266-0.373,2.68-0.447,4.242h-0.894
	c-0.373,0.596-0.597,1.34-0.671,2.232l0.895-1.115c0.335,0.037,0.633,0.186,0.894,0.445v11.387l-2.235,0.447v-0.895l0.671-4.465
	v-1.115c-0.97,0.371-1.565,1.191-1.789,2.455l-0.671,4.688h2.684l0.894,2.232c0.447,1.451,0.745,3.016,0.895,4.689l-0.224,7.814
	l-2.012,1.115c-0.485,0.111-1.081,0.188-1.789,0.223l0.447-2.455c-0.41-0.633-1.006-1.152-1.788-1.563l-0.447,1.563
	c-0.447,0.559-0.895,1.229-1.342,2.01l-2.906-0.67c0.261-1.117,0.633-2.232,1.118-3.35l3.354-2.232l1.788-0.445l0.224-2.902
	c-0.224-1.377-1.043-2.418-2.459-3.127c-0.671,0.895-1.342,2.01-2.012,3.35l-2.013,3.795c-0.634,1.043-1.453,2.084-2.459,3.125
	c-0.708,0.521-1.528,1.043-2.459,1.564c-0.038-0.41-0.262-0.707-0.671-0.895c-0.857,0.373-1.603,0.969-2.236,1.787l-0.67-0.893
	l-0.224-1.34l-3.577,0.445c-0.857-0.744-1.9-1.264-3.13-1.563c-1.193,0.447-2.608,0.818-4.248,1.117
	c-0.82,0.93-1.64,2.047-2.459,3.348c-1.044,0.707-2.311,1.154-3.801,1.34c-1.491-0.371-3.13-0.594-4.919-0.67h-4.247v-0.893
	c-0.224-0.447-0.522-0.67-0.895-0.67l-6.036,0.893l-0.447-1.34c1.043-0.668,2.31-1.264,3.801-1.785
	c1.191-0.447,2.31-1.189,3.354-2.232l0.224-1.117l-2.906,1.117c-1.23,0.41-2.497,1.004-3.801,1.785l-2.684,2.902l-0.446,1.34
	l-12.297-2.678l-4.024-1.564c-1.155-0.445-2.422-1.041-3.8-1.785c-1.007-0.482-2.199-1.152-3.577-2.01l-3.354-2.455
	c-0.858-0.707-1.826-1.6-2.906-2.68l-4.919-6.027c-0.671-1.004-1.342-2.195-2.012-3.572c-0.671-1.041-1.268-2.307-1.789-3.795
	c-0.559-1.191-1.081-2.529-1.564-4.02l-3.13-13.617l-1.342-15.404c0.483-1.154,1.154-2.418,2.012-3.795
	c-0.894-0.857-1.64-1.898-2.235-3.127v-5.58c0.596-1.303,1.714-2.047,3.354-2.232c-1.006-0.484-1.976-1.229-2.906-2.232l0.895-19.87
	c-0.262-0.148-0.56-0.372-0.895-0.669c0.186-1.414,0.931-2.53,2.235-3.349l1.118,0.447c-0.41,0.968-0.708,2.084-0.895,3.349
	l1.342,2.456l-1.342,0.447l-0.447,1.339l1.565,2.009c0.782,0.41,1.677,0.782,2.683,1.116c0.148-0.372,0.447-0.669,0.895-0.893
	l1.117-1.563c-0.559-0.372-1.081-0.818-1.564-1.339l0.671-4.912c-0.112-1.488-0.411-3.051-0.895-4.688l1.342-2.679l-0.895-0.446
	l-2.013-0.447l2.46-4.242c-0.299-0.446-0.522-0.967-0.671-1.563c0.447-1.228,0.671-2.642,0.671-4.242
	c-1.268,0.298-2.534,0.893-3.801,1.786l-1.118,2.456c0.112,0.41,0.336,0.781,0.671,1.116l0.447,1.116l-1.565,2.679
	c0.224,0.633,0.671,1.154,1.342,1.563l-0.447,2.232c-0.522,0.335-1.044,0.782-1.565,1.34c-0.521-0.074-1.043-0.297-1.564-0.67
	l0.224-5.358l0.895-2.009l-0.895-7.368l0.224-2.232l2.012,1.34h3.577l3.13-0.447v-3.795c1.229,0.298,2.272,1.042,3.13,2.233
	c0.447,0.261,0.969,0.484,1.565,0.669c0.596-0.483,1.117-1.079,1.564-1.786c-0.298-1.228-0.819-2.492-1.564-3.795
	c-0.112-1.451-0.857-2.567-2.236-3.349l-0.67-0.446l1.341-3.125l0.895-10.27c-0.149-0.893-0.447-1.786-0.895-2.679l-0.224,1.563
	c-0.037,1.303-0.41,2.643-1.117,4.019l-0.671,3.349l-0.895-0.67c-0.299-0.781-0.522-1.599-0.671-2.456l0.224-2.456
	c0.895-1.004,1.342-2.195,1.342-3.572c-1.006-1.005-1.677-2.269-2.013-3.795l1.118-0.446l0.224,1.339
	c0.447-0.186,0.819-0.483,1.118-0.893c0.074-1.451,0.372-3.014,0.894-4.688c1.23-0.595,2.646-1.041,4.248-1.339l-0.895-2.456
	l3.801-0.447c-0.447-0.558-0.67-1.228-0.67-2.009c0.894-0.893,2.012-1.637,3.354-2.232l1.788,3.349l1.565,0.223l0.446-0.669
	l-0.224-2.009c0.187-1.34,0.708-2.679,1.565-4.019c0.895-0.707,2.012-1.451,3.354-2.232l8.942-2.233l20.121-0.669v-0.224
	l0.895,0.447c0.856,0.781,1.9,1.6,3.13,2.456c0.969,0.745,2.087,1.489,3.354,2.233c0.931,0.745,2.049,1.488,3.354,2.232l3.577,2.009
	c1.192,0.521,2.607,0.968,4.248,1.339c0.819,1.042,1.937,1.786,3.354,2.232l1.564-0.223l-1.564-2.009l-3.13-2.456l-10.955-5.805
	C430.87,16.617,429.901,15.724,429.119,14.458z M366.073,59.109h1.341l0.224,1.563l-0.447,0.67l-1.341,0.223L366.073,59.109z
	 M371.662,40.133c0.298,1.228,0.447,2.642,0.447,4.242l-0.671,8.26l-3.354,1.116l-0.447-2.456l0.224-1.563l2.235-6.697
	C370.283,42.03,370.805,41.063,371.662,40.133z M369.427,130.326l0.224,2.232h2.012
	C371.662,131.182,370.916,130.438,369.427,130.326z M369.427,135.906c0.074,0.484,0.298,0.932,0.67,1.34
	C370.06,136.727,369.836,136.279,369.427,135.906z M369.427,142.605c0.074,0.596,0.298,1.191,0.67,1.785
	C370.022,143.758,369.799,143.162,369.427,142.605z M369.65,122.066v1.338l0.67,0.225l1.789-0.225v-1.338H369.65z M370.991,146.4
	l-0.447,3.348l0.671,0.447l2.235,2.68l1.342,3.572c0.261,1.078,0.931,1.896,2.012,2.455l0.224-1.787l-0.67-1.563
	c-0.299-1.152-0.746-2.344-1.342-3.572c-0.224-1.115-0.746-2.232-1.565-3.348C373.078,147.48,372.258,146.734,370.991,146.4z
	 M374.568,73.174l-0.224,2.232l1.342,0.223l2.459,1.563l3.354,0.223l10.284,5.804c0.782,0.447,1.677,0.745,2.683,0.893l0.447-0.893
	l-0.224-2.232l-3.13-0.893l-2.683-1.339c-0.671-0.595-1.491-1.116-2.459-1.563l-8.496-3.572L374.568,73.174z M374.568,78.085
	l-0.224,2.456l0.224,0.893v0.669l1.342,11.386c0.036,1.042,0.335,2.158,0.894,3.349c0.708,0.856,1.081,1.973,1.118,3.349
	l0.447,3.796c0.521,0.26,1.118,0.41,1.788,0.446l-0.223-1.116v-3.572l-0.224-0.67v-3.349l0.67-0.223h1.118v-3.125l-2.012-2.233
	l-1.789-2.679l-1.788-6.698l-0.224-2.679H374.568z M375.016,50.402l0.671,0.67l-0.447,2.009
	C375.127,52.263,375.053,51.37,375.016,50.402z M378.146,141.936c-0.299,0.371-0.447,0.818-0.447,1.34l1.565,0.223l0.447-0.223
	l0.67-0.895L378.146,141.936z M378.369,37.454c0.298,0.41,0.671,0.633,1.118,0.67C379.226,37.752,378.853,37.529,378.369,37.454z
	 M378.816,123.404l-0.447,2.232l0.224,0.67c0.521,0.521,1.192,0.969,2.012,1.34l2.684,0.67l2.235,1.117l0.447-1.34l-1.118-0.447
	l-3.801-3.125C380.455,124.074,379.711,123.703,378.816,123.404z M379.487,83.667v1.116l2.012-0.223
	C380.977,84.002,380.307,83.705,379.487,83.667z M380.157,54.867c0.298,1.08,0.819,2.121,1.565,3.125
	c0.856,0.633,1.9,1.005,3.13,1.117c-0.224-1.117-0.597-2.233-1.118-3.349C382.729,55.24,381.536,54.942,380.157,54.867z
	 M380.381,166.27c0.074,0.893,0.596,1.414,1.565,1.563C381.908,166.902,381.388,166.381,380.381,166.27z M380.604,46.384
	l0.671,6.251h0.895l0.224-0.223c0.447-0.967,1.267-1.711,2.459-2.232l2.906,0.223v1.339c0.336-0.409,0.56-0.855,0.671-1.339
	l-1.118-3.349l-3.577,0.446C382.803,47.054,381.76,46.682,380.604,46.384z M381.052,111.795l0.224,4.242
	c0.112,0.969,0.41,1.936,0.895,2.902l-0.224-7.145H381.052z M382.394,144.613l-0.447,1.787l0.224,0.67l1.564,0.445l0.671-0.223
	l0.447-2.455L382.394,144.613z M385.971,60.226c-0.485,0.968-0.857,2.084-1.118,3.349c-0.224,1.042-0.895,1.861-2.012,2.456
	c0.298,1.005,0.819,1.973,1.564,2.902l3.801,2.679c0.372-0.335,0.671-0.781,0.895-1.339c-0.112-1.079-0.411-2.27-0.895-3.572
	l-0.895-3.572C387.312,62.011,386.864,61.044,385.971,60.226z M383.064,137.246v0.447l0.446-0.223L383.064,137.246z M386.642,29.64
	c-0.746,0.112-1.565,0.335-2.46,0.67l-0.224,4.912h0.895c0.782,0.038,1.602,0.187,2.459,0.446l0.224,2.009l-0.447,0.67
	c-0.559,0.446-1.229,0.819-2.012,1.116l-1.788,1.116c0.074,0.708,0.297,1.451,0.67,2.232c0.447,0.558,1.043,1.005,1.789,1.34
	c0.671-0.186,1.341-0.483,2.012-0.893l1.342-4.688l0.224-2.679v-6.028L386.642,29.64z M384.405,154.66l-0.671,3.125v1.787
	l1.342-0.447c0.596-0.705,0.895-1.6,0.895-2.678C385.672,155.777,385.15,155.182,384.405,154.66z M384.182,91.927
	c0.037,1.266,0.261,2.679,0.671,4.242c-0.111,0.67-0.335,1.415-0.671,2.233l-0.224,0.669l0.671,0.223
	c1.118-0.446,2.013-1.19,2.683-2.232l4.024-0.893c1.043-0.446,1.863-1.19,2.459-2.232c-0.969-0.707-2.161-1.079-3.577-1.116
	l-3.354,1.116C386.492,92.597,385.598,91.927,384.182,91.927z M383.958,102.644c0.074,0.261,0.224,0.484,0.447,0.67
	C384.368,103.016,384.219,102.792,383.958,102.644z M385.076,162.027l-0.671,6.697l0.447,3.35c0.261,0.67,0.633,1.266,1.118,1.785
	l0.894-2.902v-7.367C386.678,162.697,386.082,162.178,385.076,162.027z M385.747,31.873c0.895,0,1.415,0.446,1.564,1.339
	C386.604,33.063,386.082,32.617,385.747,31.873z M387.982,87.686c-0.299,0.261-0.522,0.633-0.671,1.116h1.118
	C388.43,88.393,388.28,88.021,387.982,87.686z M387.759,98.178l-0.224,2.233c0.074,0.223,0.224,0.446,0.447,0.669l1.565,0.893
	l0.67-0.446l0.447-1.786l-0.67-0.447C389.36,98.848,388.615,98.477,387.759,98.178z M388.206,103.09
	c0.261,0.708,0.633,1.377,1.118,2.01l1.564-0.67l0.671-1.34H388.206z M390.441,124.744l-1.341,0.223
	c0,0.299,0.148,0.596,0.447,0.895C390.069,125.637,390.366,125.266,390.441,124.744z M390.441,52.188l-0.67,0.446l0.224,1.786
	c0.595,0.521,1.266,0.893,2.012,1.116l0.447-2.456C392.007,52.487,391.336,52.188,390.441,52.188z M391.112,120.949
	c-0.41,0.521-0.708,1.191-0.895,2.01c0.298,0.445,0.745,0.744,1.342,0.893c0.447-0.447,0.745-0.967,0.895-1.563
	C392.155,121.805,391.708,121.359,391.112,120.949z M390.218,134.344l0.224,2.232l1.342-0.223v-2.01H390.218z M392.23,25.398
	l-0.224,1.116l0.224,0.447l1.118-0.224l0.446-1.339H392.23z M392.454,33.658c0.372,0.521,0.895,0.819,1.564,0.893
	C393.608,34.143,393.087,33.845,392.454,33.658z M392.901,41.472l0.224,2.232l1.117-0.446l0.224-1.786H392.901z M392.901,87.462
	c0.111,0.781,0.483,1.451,1.117,2.009v-2.009H392.901z M394.689,56.876c-0.373,0.782-0.671,1.675-0.895,2.679
	c0.634,0.484,1.379,0.856,2.236,1.116c1.08,0.038,1.825,0.558,2.235,1.563l0.447,1.339l0.895-0.67l1.341-2.009v-2.232
	L394.689,56.876z M395.808,95.723l-1.342,1.563c0.484,0.335,1.08,0.558,1.789,0.67c0.521-0.26,0.968-0.707,1.341-1.339
	C397.111,96.207,396.515,95.909,395.808,95.723z M394.689,100.188l0.224,1.34c0.409-0.224,0.707-0.595,0.895-1.116L394.689,100.188z
	 M399.161,20.709c-0.82,0.708-1.864,1.154-3.13,1.34l-0.224,2.009l17.662,10.716l2.235-0.223v-1.786l-5.589-3.125l-2.46-2.009
	l-2.012-2.232l-3.13-1.116c-1.044-0.223-1.715-0.818-2.013-1.786l0.224-1.786H399.161z M396.031,34.551
	c0.111,1.08,0.782,1.75,2.012,2.009l2.906,1.339c-0.261-1.079-1.006-1.748-2.235-2.009C397.932,35.296,397.037,34.85,396.031,34.551
	z M399.161,90.811l-0.895,2.232c0.187,0.484,0.559,0.931,1.118,1.34c0.298-1.042,0.521-2.233,0.671-3.572H399.161z M398.49,53.751
	l0.447,0.67C398.899,54.124,398.75,53.9,398.49,53.751z M399.832,103.09l-0.224,1.116h0.67
	C400.241,103.798,400.092,103.425,399.832,103.09z M400.949,85.676c-0.484,0.484-0.857,1.08-1.117,1.786l1.341,0.669
	c0.931,0.708,2.049,1.228,3.354,1.563l0.895-0.223c-0.261-0.818-0.708-1.563-1.342-2.233
	C403.147,86.644,402.104,86.123,400.949,85.676z M400.056,46.384c0.371,1.08,1.042,2.121,2.012,3.125
	c0.596,0.893,1.416,1.563,2.459,2.009l0.224-3.795c-0.037-0.335-0.187-0.558-0.447-0.669L400.056,46.384z M400.056,81.881
	c0.036,0.745,0.186,1.563,0.446,2.456v-2.009C400.465,82.104,400.315,81.956,400.056,81.881z M401.396,53.082
	c-0.335,0.334-0.559,0.781-0.671,1.339l0.895,0.446c0.745,0.335,1.49,0.782,2.235,1.34l1.789,1.563
	c0.671,0.41,1.415,0.708,2.235,0.893c0.298-0.818,0.447-1.637,0.447-2.456l-2.459-0.893l-1.789-1.786L401.396,53.082z
	 M401.844,67.816l-0.671,1.116h1.118C402.291,68.523,402.142,68.151,401.844,67.816z M402.067,177.656
	c-0.299,0.26-0.522,0.633-0.671,1.115c0.447,0.447,0.969,0.744,1.565,0.893c0.335-0.631,0.559-1.301,0.67-2.008H402.067z
	 M402.515,57.77v3.572c0.521,0.261,1.117,0.41,1.788,0.446c0.224-0.521,0.372-1.116,0.447-1.786l-0.671-0.446
	C403.893,58.7,403.371,58.104,402.515,57.77z M405.645,63.797c0.372,0.484,0.895,0.781,1.564,0.893
	C406.799,64.319,406.277,64.021,405.645,63.797z M407.88,49.509l-0.224,2.009l1.118,0.67l1.342,0.446l0.67-0.223l0.671-0.447
	l0.895-2.232L407.88,49.509z M413.246,18.924l-2.907,0.446c0.372,0.708,0.895,1.377,1.565,2.009l1.565,0.223l0.446-0.223
	c0.224-0.037,0.372-0.186,0.447-0.446C414.177,20.227,413.805,19.557,413.246,18.924z M411.681,152.65v2.457l2.235-0.225
	l-0.224-2.232H411.681z M415.929,40.802c-0.671,0.373-1.268,0.968-1.789,1.786c0.521,0.558,1.118,1.08,1.789,1.563
	c0.782-0.409,1.229-1.079,1.341-2.009C416.972,41.621,416.524,41.175,415.929,40.802z M414.811,36.561l-0.447,1.339h1.118
	L414.811,36.561z M419.953,47.5c0.446,0.335,0.818,0.781,1.117,1.339h-2.012C419.244,48.319,419.542,47.873,419.953,47.5z
	 M419.506,41.472c0.148,0.633,0.521,1.08,1.117,1.339l0.224-1.339H419.506z M424.871,171.852l-2.683,0.67
	c-0.634,0.148-1.229,0.521-1.789,1.115c0.224,0.707,0.745,1.154,1.565,1.34l4.472,0.893l0.67-0.223
	c0.596-0.336,1.043-0.855,1.342-1.563c-0.075-0.707-0.373-1.377-0.895-2.01L424.871,171.852z M421.07,165.377l-0.224,2.455
	l0.447,1.34l0.671-0.447l0.447-2.455l-0.224-0.893H421.07z M422.412,180.334l-1.342,3.35h0.895c0.111-0.781,0.559-1.303,1.342-1.563
	c0.521,0.371,1.117,0.744,1.788,1.115c0.596-0.074,1.118-0.297,1.565-0.67l0.894-2.008L422.412,180.334z M422.636,159.572
	c-0.411,0.707-0.708,1.525-0.895,2.455l1.118,0.447c0.335-0.893,0.559-1.861,0.671-2.902H422.636z M422.412,154.438
	c0.224,0.41,0.521,0.633,0.895,0.67L422.412,154.438z M425.318,90.141h9.39l0.895,0.224l29.287,0.223l-0.447,12.948
	c-0.745-0.371-1.341-0.893-1.788-1.563L461.76,95.5c-0.671,0.075-1.342,0.298-2.012,0.669l-0.671,4.242v1.339l-3.354-0.67
	c-1.268-0.186-2.683-0.483-4.248-0.893l-1.788-0.669l0.224,2.232c-0.635,0.41-1.379,0.707-2.236,0.893l-0.224-2.009
	c-0.819-0.595-1.714-1.414-2.683-2.456c-0.559-0.855-1.081-1.972-1.564-3.349c-0.635-1.153-1.677-1.823-3.13-2.009
	c-0.746,0.819-1.342,1.861-1.789,3.125c-0.261,1.377-0.41,2.94-0.447,4.688v1.116l-2.459-1.563h-1.565
	c0.187,0.745,0.56,1.415,1.118,2.009l0.447,3.573l-0.671,0.445l-2.906,1.34v-3.349c-0.671,0.111-1.342,0.335-2.012,0.67
	l-4.024-0.224c-0.262-1.451-0.41-3.014-0.447-4.688l-0.224-8.93L425.318,90.141z M425.318,105.546
	c1.043,0.149,2.235,0.224,3.577,0.224c0.596,0.408,1.043,1.004,1.341,1.785h-0.894c-0.97,0.111-2.013,0.334-3.13,0.67
	C425.653,107.48,425.355,106.588,425.318,105.546z M428.001,42.365c0.074,0.373,0.298,0.67,0.671,0.893
	C428.561,42.923,428.337,42.626,428.001,42.365z M429.119,181.674l-0.224,2.232l0.447,0.67l2.906-0.447l0.447-1.563l-0.671-0.445
	L429.119,181.674z M430.014,114.029l0.223,2.678c0.298,0.336,0.671,0.559,1.118,0.67l0.224-2.902L430.014,114.029z M430.684,172.744
	v2.678l1.789-0.445l0.447-1.563l-0.224-0.67H430.684z M432.92,162.027v2.232h1.117v-2.232H432.92z M433.144,39.686l0.224,1.786
	l2.012-0.223C434.969,40.394,434.224,39.873,433.144,39.686z M434.037,157.785c0.224,0.969,0.596,1.936,1.118,2.902
	c0.895,0.299,1.863,0.521,2.906,0.67l-1.341-2.678C435.938,158.232,435.044,157.936,434.037,157.785z M435.155,172.967l-0.671,0.447
	l-0.224,1.34l0.447,0.223C435.006,174.344,435.155,173.674,435.155,172.967z M436.721,116.262l1.341,0.223l-0.224,2.455
	C437.279,118.195,436.906,117.303,436.721,116.262z M436.721,120.727h1.117v1.563h-1.117V120.727z M436.943,171.852v0.893
	l0.895-0.447L436.943,171.852z M438.732,37.677c-0.112,0.484-0.187,1.08-0.224,1.786l0.671,0.447l0.671,0.223l2.012-0.223
	l-0.224-2.233H438.732z M440.297,139.703l-0.446,0.67l0.446,2.008l0.895-0.223l0.447-2.455H440.297z M441.415,129.879l-1.118,0.447
	v6.475c0.634,0.633,1.379,1.227,2.236,1.785c0.707,0.447,1.527,0.818,2.459,1.117c-0.149-0.969-0.522-1.936-1.118-2.902l-1.341-0.67
	l1.117-4.689C443.278,130.512,442.533,129.99,441.415,129.879z M440.744,145.283c0.148,0.559,0.521,1.006,1.118,1.34v-1.34H440.744z
	 M441.415,41.695l0.224,2.009l1.789-0.223C443.166,42.552,442.495,41.956,441.415,41.695z M444.769,44.151
	c-0.224,0.669-0.373,1.415-0.447,2.232l2.683,0.223c0.745,0.223,1.416,0.596,2.013,1.116c0.671-0.111,1.415-0.335,2.235-0.669
	c-0.559-0.447-1.229-0.818-2.012-1.117l1.341-1.563L444.769,44.151z M444.992,108.895h2.235c-0.037,0.371-0.187,0.818-0.446,1.338
	l-1.565,0.447C445.104,110.158,445.029,109.563,444.992,108.895z M444.992,170.512l0.447,1.115l0.224-1.115H444.992z
	 M445.439,141.266v7.59l1.342-0.445l-0.895-4.02l0.224-2.902L445.439,141.266z M447.675,33.435
	c-0.782,0.781-1.305,1.824-1.564,3.125l3.13,0.447l0.671-0.224l1.564-1.116l-0.447-1.339
	C450.135,33.77,449.017,33.473,447.675,33.435z M447.898,125.414l-0.671,1.787h0.895l0.447-1.34L447.898,125.414z M453.041,34.105
	l-0.447,1.116l1.341,0.446l0.447-0.446l-0.224-1.116H453.041z M453.041,184.576h1.788c-0.075,0.373-0.299,0.744-0.671,1.117
	l-1.564,0.223L453.041,184.576z M452.817,171.182v2.008l2.235-0.223l0.224-1.785H452.817z M453.265,97.062v1.34l0.67-1.117
	L453.265,97.062z M454.605,139.926l-1.341,0.67c0.26,0.445,0.633,0.818,1.117,1.115l1.118-0.223
	C455.351,140.969,455.053,140.447,454.605,139.926z M454.829,153.768c-0.671,0.299-1.192,0.818-1.564,1.563
	c0.521,0.484,1.117,0.855,1.788,1.117c0.596-0.336,1.043-0.855,1.342-1.564C456.207,154.178,455.686,153.805,454.829,153.768z
	 M453.265,165.822v1.117c0.559-0.148,1.006-0.521,1.341-1.117H453.265z M453.935,119.387l-0.446,2.01l0.223,0.67l0.224,1.115
	l1.565-0.223l0.671-2.902C455.5,119.721,454.754,119.498,453.935,119.387z M454.382,162.475l-0.671,2.232l0.895-0.223l0.671-1.787
	L454.382,162.475z M454.158,103.09c0.521,0.112,1.118,0.187,1.789,0.224c-0.112,0.41-0.336,0.855-0.671,1.339
	C454.829,104.206,454.456,103.686,454.158,103.09z M454.158,105.77l3.13,0.893c0.41,0.67,0.708,1.414,0.895,2.232l-0.671,0.223
	l-3.13,0.445L454.158,105.77z M454.605,143.051l-0.224,0.67l0.224,2.01h2.013C456.469,144.465,455.798,143.572,454.605,143.051z
	 M454.605,126.307l0.895,5.359l0.895-0.447l0.224-3.35C456.133,127.201,455.462,126.68,454.605,126.307z M455.724,150.865
	l-0.671,1.563l0.895,0.447l0.447-0.225l0.67-1.785H455.724z M459.748,123.404c-0.411,0.707-0.783,1.527-1.118,2.457l-0.447,1.785
	l0.671-0.445l1.564-1.787l0.224-2.01H459.748z M459.077,184.354h1.341v1.785l-0.894,0.223h-1.118
	C458.48,185.656,458.704,184.986,459.077,184.354z M460.195,133.451c0.074,0.373,0.371,0.67,0.894,0.893
	C460.978,133.936,460.679,133.639,460.195,133.451z M463.771,115.814c0.336,0.855,0.56,1.824,0.671,2.902
	C464.144,117.824,463.92,116.857,463.771,115.814z"/>
<g>
</g>
<g>
</g>
<g>
</g>
<g>
</g>
<g>
</g>
<g>
</g>
<g>
</g>
<g>
</g>
<g>
</g>
<g>
</g>
<g>
</g>
<g>
</g>
<g>
</g>
<g>
</g>
<g>
</g>
</svg>
